<svg xmlns="http://www.w3.org/2000/svg" width="210" height="50" viewBox="0 0 210 50">
  <g id="Group_4" data-name="Group 4" transform="translate(-673 -410)">
    <rect id="Rectangle_3" data-name="Rectangle 3" width="210" height="50" transform="translate(673 410)" fill="#140534" opacity="0"/>
    <path id="KRACE" d="M3.91.885A3.729,3.729,0,0,1,6.643,2.027,3.73,3.73,0,0,1,7.785,4.76V46.87A3.73,3.73,0,0,1,6.643,49.6,3.73,3.73,0,0,1,3.91,50.745,3.77,3.77,0,0,1,1.142,49.6,3.73,3.73,0,0,1,0,46.87V4.76A3.729,3.729,0,0,1,1.142,2.027,3.77,3.77,0,0,1,3.91.885Zm17.82,14.29a4.04,4.04,0,0,1-1.488-2.63,3.881,3.881,0,0,1,.83-2.872l5.64-7.3a3.948,3.948,0,0,1,5.5-.657,3.778,3.778,0,0,1,1.453,2.6,3.83,3.83,0,0,1-.761,2.872l-5.675,7.3a3.912,3.912,0,0,1-2.6,1.488A4.071,4.071,0,0,1,21.73,15.175ZM32.871,44.24a4.161,4.161,0,0,1,.83,2.976,3.88,3.88,0,0,1-1.488,2.664,4.083,4.083,0,0,1-2.976.865,4.013,4.013,0,0,1-2.664-1.523L10.138,28.5a3.973,3.973,0,0,1-.865-2.941,4.142,4.142,0,0,1,1.522-2.7,3.85,3.85,0,0,1,2.941-.83,4,4,0,0,1,2.7,1.488ZM72.144,8.22a14.621,14.621,0,0,1,1.834,7.439,15.014,15.014,0,0,1-.692,4.844,13.508,13.508,0,0,1-2.526,4.6,12.756,12.756,0,0,1-4.6,3.495,16.353,16.353,0,0,1-6.99,1.349l-10.519.069V47.008a3.77,3.77,0,0,1-1.142,2.768,3.83,3.83,0,0,1-2.768,1.107,3.84,3.84,0,0,1-3.876-3.876v-20.9A3.757,3.757,0,0,1,41.9,23.445a3.86,3.86,0,0,1,2.906-1.28l4.36.035H59.2a5.985,5.985,0,0,0,4.6-1.9,6.64,6.64,0,0,0,1.869-4.533h-.035A6.425,6.425,0,0,0,63.8,11.2a5.99,5.99,0,0,0-4.637-1.972H49.134l-4.36.035a3.827,3.827,0,0,1-2.8-1.176,3.963,3.963,0,0,1-1.142-2.8,3.77,3.77,0,0,1,1.142-2.768,3.729,3.729,0,0,1,2.734-1.142h3.841l6.678.069a3.2,3.2,0,0,1,.45-.035h3.495V1.369q.554,0,1.107.035a14.109,14.109,0,0,1,5.294.9A10.069,10.069,0,0,1,69.1,4.691a12.848,12.848,0,0,1,2.768,3.183ZM66.262,37.528l6.54,6.54a4,4,0,0,1,1.142,2.768A3.9,3.9,0,0,1,70,50.745,3.965,3.965,0,0,1,67.265,49.6l-6.54-6.54a3.964,3.964,0,0,1-1.142-2.734,3.9,3.9,0,0,1,3.91-3.945A4,4,0,0,1,66.262,37.528Zm60.587,8.027a3.744,3.744,0,0,1,.069,2.906,3.7,3.7,0,0,1-1.972,2.076,3.7,3.7,0,0,1-4.983-1.9L104.254,14.068,88.545,48.635a3.82,3.82,0,0,1-2.111,2.007,3.763,3.763,0,0,1-2.872-.1,3.7,3.7,0,0,1-1.9-4.982l19-41.833A3.751,3.751,0,0,1,101.867,2.2l.208-.208h.035l.208-.138a1.689,1.689,0,0,1,.173-.1.1.1,0,0,1,.069-.035l.035-.035a.1.1,0,0,0,.069-.035.141.141,0,0,1,.1-.035l.035-.035h.034a.1.1,0,0,0,.069-.035h.034a.031.031,0,0,0,.035-.035.569.569,0,0,1,.173-.035,3.63,3.63,0,0,1,2.214,0h.035a2.435,2.435,0,0,0,.311.1.031.031,0,0,0,.035.035h.034l.035.035a2.261,2.261,0,0,1,.242.138h.069a5.663,5.663,0,0,1,.588.45,4.512,4.512,0,0,1,1.142,1.488Zm-17.993-2.526a3.715,3.715,0,0,1,2.768,1.176,3.77,3.77,0,0,1,1.142,2.768,3.843,3.843,0,0,1-1.142,2.768,3.769,3.769,0,0,1-2.768,1.142h-9.2a3.884,3.884,0,0,1-2.8-1.142,3.843,3.843,0,0,1-1.142-2.768,3.77,3.77,0,0,1,1.142-2.768,3.827,3.827,0,0,1,2.8-1.176Zm55.985-4.187a3.9,3.9,0,0,1,3.91,3.91,3.685,3.685,0,0,1-1.28,2.872,2.666,2.666,0,0,1-.588.45,24.916,24.916,0,0,1-6.816,3.564,24.356,24.356,0,0,1-7.82,1.246,23.967,23.967,0,0,1-12.491-3.356,25.646,25.646,0,0,1-8.962-8.962,24.157,24.157,0,0,1-3.322-12.491,23.975,23.975,0,0,1,3.322-12.457,25.555,25.555,0,0,1,8.962-9,24.931,24.931,0,0,1,20.38-2.076,24.925,24.925,0,0,1,6.851,3.6A3.759,3.759,0,0,1,168.751,9.4a3.9,3.9,0,0,1-3.91,3.91,3.808,3.808,0,0,1-2.526-.9,16.918,16.918,0,0,0-18.616-1,17.6,17.6,0,0,0-6.159,6.124,16.406,16.406,0,0,0-2.284,8.547,16.406,16.406,0,0,0,2.284,8.547A17.888,17.888,0,0,0,143.7,40.78a17.091,17.091,0,0,0,18.754-1.107A3.715,3.715,0,0,1,164.841,38.843ZM179.547,9.12a3.782,3.782,0,0,1-3.841-3.841,3.789,3.789,0,0,1,1.107-2.734A3.73,3.73,0,0,1,179.547,1.4H205.29a3.618,3.618,0,0,1,2.7,1.142,3.73,3.73,0,0,1,1.142,2.734,3.73,3.73,0,0,1-1.142,2.733,3.673,3.673,0,0,1-2.7,1.107ZM205.29,43.133a3.617,3.617,0,0,1,2.7,1.142,3.657,3.657,0,0,1,1.142,2.733,3.73,3.73,0,0,1-1.142,2.734,3.672,3.672,0,0,1-2.7,1.107H179.547a3.782,3.782,0,0,1-3.841-3.841V25.971a3.77,3.77,0,0,1,1.142-2.768,3.715,3.715,0,0,1,2.768-1.176h9.2a3.715,3.715,0,0,1,2.768,1.176,3.77,3.77,0,0,1,1.142,2.768,3.845,3.845,0,0,1-1.142,2.768,3.77,3.77,0,0,1-2.768,1.142h-5.26V43.133Z" transform="translate(673.4 409.116)" fill="#fff"/>
  </g>
</svg>
