<svg width="1920" height="571" viewBox="0 0 1920 571" fill="none" xmlns="http://www.w3.org/2000/svg">
<g filter="url(#filter0_d_556_17120)">
<path d="M1900.43 526.036C1907.3 533.335 1913.95 540.968 1923 551C1376.63 551 834.199 551 292.161 550.967H-1V380.938L46.0924 360.942C74.5 330.5 79.5 318.5 112 303.5C139.513 290.802 200.972 268.693 232.367 245.065C241.39 239.465 247.98 235.466 254.486 231.366C257.371 229.533 260.313 227.733 263 225.5C276.69 214.168 290.324 202.636 304.014 191.27C309.954 186.337 315.526 179.038 322.117 177.372C336.514 173.739 350.601 172.505 363.697 161.54C381.545 146.608 465.467 145.141 476.838 119.344C477.828 117.111 480.176 115.744 481.59 113.711C489.227 102.746 496.242 91.1803 504.473 80.8814C511.488 72.0823 521.784 56.4839 527.215 58.2837C545.968 64.4497 553.266 49.2513 561.752 37.8858C579.572 14.0549 578.553 14.1215 596.656 37.5858C603.982 47.1182 614.872 53.0842 624.631 59.6835C628.619 62.3833 635.407 60.7168 638.208 64.1497C645.986 73.6488 652.181 84.9143 659.337 95.1799C669.463 109.745 678.628 125.677 690.565 137.842C700.267 147.741 712.769 155.74 725.158 159.607C740.376 164.373 750.7 183.504 769.736 178.005C775.931 176.238 785.152 183.504 791.488 189.004C812.023 206.769 831.371 226.5 852.443 243.298C855.951 246.065 866.19 239.032 872.357 234.666C876.345 231.833 878.353 225.4 881.606 220.934C889.073 210.701 896.06 199.769 904.546 190.87C912.296 182.738 921.658 171.872 930.597 171.505C939.28 171.139 945.192 172.639 952.462 164.473C961.768 154.007 973.676 146.775 984.679 137.976C1007.82 163.44 1007.82 163.44 1033.81 140.009C1035.14 138.809 1036.36 137.209 1037.86 136.409C1063.71 122.977 1083 84.6477 1119.09 110.045C1130.01 117.744 1146.13 114.511 1158.18 120.777C1174.7 129.376 1189.35 142.842 1205.28 153.241C1222.22 164.306 1238.8 180.671 1259.67 161.74C1262.81 158.907 1269.77 158.34 1273.5 160.407C1304.11 177.238 1334.4 194.936 1364.78 212.335C1368.32 214.334 1372.56 218.834 1375.28 217.801C1390.3 212.068 1398.72 224.9 1408.14 233.399C1431.06 254.097 1453.32 275.761 1475.83 297.093C1484.63 305.392 1493.34 313.824 1498.43 318.69C1510.06 317.557 1520.07 312.991 1527.06 316.591C1545.16 325.956 1559.67 342.288 1581.87 343.821C1604.76 345.388 1613.64 375.085 1631.32 389.117C1642.8 398.216 1649.65 402.315 1661.95 394.349C1678.81 383.45 1695.3 362.519 1716.17 386.25C1716.51 386.617 1717.25 386.483 1717.82 386.617C1730.88 389.916 1745.08 390.483 1756.79 397.116C1773.48 406.581 1788.28 420.613 1804.03 432.412C1811.19 437.778 1819.64 441.245 1825.95 447.677C1851.13 473.341 1875.71 499.805 1900.43 526.036Z" fill="url(#paint0_linear_556_17120)"/>
</g>
<defs>
<filter id="filter0_d_556_17120" x="-1" y="0" width="1984" height="571" filterUnits="userSpaceOnUse" color-interpolation-filters="sRGB">
<feFlood flood-opacity="0" result="BackgroundImageFix"/>
<feColorMatrix in="SourceAlpha" type="matrix" values="0 0 0 0 0 0 0 0 0 0 0 0 0 0 0 0 0 0 127 0" result="hardAlpha"/>
<feOffset dx="40"/>
<feGaussianBlur stdDeviation="10"/>
<feComposite in2="hardAlpha" operator="out"/>
<feColorMatrix type="matrix" values="0 0 0 0 0 0 0 0 0 0 0 0 0 0 0 0 0 0 0.8 0"/>
<feBlend mode="normal" in2="BackgroundImageFix" result="effect1_dropShadow_556_17120"/>
<feBlend mode="normal" in="SourceGraphic" in2="effect1_dropShadow_556_17120" result="shape"/>
</filter>
<linearGradient id="paint0_linear_556_17120" x1="239.5" y1="683.75" x2="913.457" y2="-537.242" gradientUnits="userSpaceOnUse">
<stop stop-color="#367D4D"/>
<stop offset="0.5" stop-color="#00B0B9"/>
<stop offset="1" stop-color="#82D89A"/>
</linearGradient>
</defs>
</svg>
