<svg width="1920" height="952" viewBox="0 0 1920 952" fill="none" xmlns="http://www.w3.org/2000/svg">
<path d="M1524 159.017L1520.96 170.593L1512.48 162.116L1524 159.017Z" fill="url(#paint0_radial_572_16639)"/>
<path d="M1385.03 125.049L1381.93 136.566L1373.51 128.147L1385.03 125.049Z" fill="url(#paint1_radial_572_16639)"/>
<path d="M1807.38 374.927L1804.28 386.445L1795.8 377.968L1807.38 374.927Z" fill="url(#paint2_radial_572_16639)"/>
<path d="M1540.72 554.824L1537.62 566.342L1529.14 557.865L1540.72 554.824Z" fill="url(#paint3_radial_572_16639)"/>
<path d="M2013.58 577.041L2010.48 588.558L2002.06 580.139L2013.58 577.041Z" fill="url(#paint4_radial_572_16639)"/>
<path d="M1609.18 377.617L1606.14 389.193L1597.66 380.716L1609.18 377.617Z" fill="url(#paint5_radial_572_16639)"/>
<path d="M1314.22 376.74L1311.13 388.258L1302.71 379.839L1314.22 376.74Z" fill="url(#paint6_radial_572_16639)"/>
<path d="M1591.99 686.662L1588.89 698.18L1580.42 689.702L1591.99 686.662Z" fill="white"/>
<path d="M1797.09 611.008L1794.05 622.584L1785.57 614.107L1797.09 611.008Z" fill="url(#paint7_radial_572_16639)"/>
<path d="M1761.6 803.884L1758.56 815.46L1750.08 806.983L1761.6 803.884Z" fill="url(#paint8_radial_572_16639)"/>
<path d="M1754.82 602.765C1753.24 604.343 1753.18 606.974 1754.82 608.611C1756.39 610.19 1759.03 610.248 1760.66 608.611C1762.24 607.032 1762.3 604.402 1760.66 602.765C1759.03 601.128 1756.45 601.128 1754.82 602.765Z" fill="url(#paint9_radial_572_16639)"/>
<path d="M1718.63 540.15C1720.24 541.764 1722.86 541.764 1724.47 540.15C1726.09 538.535 1726.09 535.918 1724.47 534.303C1722.86 532.689 1720.24 532.689 1718.63 534.303C1717.01 535.918 1717.01 538.535 1718.63 540.15Z" fill="url(#paint10_radial_572_16639)"/>
<path d="M1528.38 653.922C1530 655.537 1532.61 655.537 1534.23 653.922C1535.84 652.308 1535.84 649.69 1534.23 648.076C1532.61 646.461 1530 646.461 1528.38 648.076C1526.77 649.69 1526.77 652.308 1528.38 653.922Z" fill="url(#paint11_radial_572_16639)"/>
<path d="M1278.74 211.577C1280.35 213.191 1282.97 213.191 1284.58 211.577C1286.2 209.962 1286.2 207.345 1284.58 205.73C1282.97 204.116 1280.35 204.116 1278.74 205.73C1277.12 207.345 1277.12 209.962 1278.74 211.577Z" fill="url(#paint12_radial_572_16639)"/>
<path d="M1864.32 534.186C1862.74 535.764 1862.68 538.395 1864.32 540.032C1865.9 541.611 1868.53 541.669 1870.17 540.032C1871.74 538.454 1871.8 535.823 1870.17 534.186C1868.53 532.549 1865.9 532.607 1864.32 534.186Z" fill="url(#paint13_radial_572_16639)"/>
<path d="M1401.28 458.181C1399.7 459.76 1399.64 462.391 1401.28 464.028C1402.86 465.606 1405.49 465.665 1407.13 464.028C1408.7 462.449 1408.76 459.818 1407.13 458.181C1405.49 456.544 1402.92 456.544 1401.28 458.181Z" fill="url(#paint14_radial_572_16639)"/>
<path d="M1554.4 286.237C1552.82 287.815 1552.76 290.446 1554.4 292.083C1555.98 293.662 1558.61 293.72 1560.25 292.083C1561.82 290.505 1561.88 287.874 1560.25 286.237C1558.61 284.6 1555.98 284.658 1554.4 286.237Z" fill="url(#paint15_radial_572_16639)"/>
<path d="M1496.4 91.8993C1498.02 93.5137 1500.63 93.5137 1502.25 91.8993C1503.86 90.2848 1503.86 87.6672 1502.25 86.0528C1500.63 84.4383 1498.02 84.4383 1496.4 86.0528C1494.79 87.6672 1494.79 90.2848 1496.4 91.8993Z" fill="url(#paint16_radial_572_16639)"/>
<path d="M1431.15 341.544C1432.77 343.159 1435.39 343.159 1437 341.544C1438.62 339.93 1438.62 337.312 1437 335.698C1435.39 334.083 1432.77 334.083 1431.15 335.698C1429.54 337.312 1429.54 339.93 1431.15 341.544Z" fill="white"/>
<path d="M1436.07 423.863L1439.4 427.196L1442.79 423.805L1443.9 424.915L1440.51 428.306L1443.84 431.639L1442.79 432.691L1439.46 429.359L1436.07 432.75L1434.95 431.639L1438.35 428.248L1435.01 424.915L1436.07 423.863Z" fill="url(#paint17_radial_572_16639)"/>
<path d="M1824.45 412.93L1827.78 416.262L1831.11 412.93L1832.22 414.04L1828.89 417.373L1832.28 420.764L1831.17 421.875L1827.78 418.484L1824.39 421.875L1823.28 420.764L1826.67 417.373L1823.34 414.04L1824.45 412.93Z" fill="url(#paint18_radial_572_16639)"/>
<path d="M1945.41 654.916L1948.74 658.249L1952.13 654.858L1953.25 655.968L1949.85 659.359L1953.19 662.692L1952.08 663.803L1948.74 660.47L1945.41 663.803L1944.3 662.692L1947.63 659.359L1944.3 656.027L1945.41 654.916Z" fill="url(#paint19_radial_572_16639)"/>
<path d="M1818.07 748.81L1821.47 752.201L1824.86 748.81L1825.91 749.863L1822.52 753.254L1825.91 756.645L1824.86 757.697L1821.47 754.306L1818.07 757.697L1817.02 756.645L1820.41 753.254L1817.02 749.863L1818.07 748.81Z" fill="white"/>
<path d="M1630.81 654.039L1634.14 657.371L1637.48 654.039L1638.59 655.15L1635.26 658.482L1638.59 661.815L1637.48 662.926L1634.14 659.593L1630.81 662.926L1629.7 661.815L1633.03 658.482L1629.7 655.15L1630.81 654.039Z" fill="white"/>
<path d="M1523.82 116.63L1527.21 120.021L1530.54 116.688L1531.6 117.741L1528.26 121.073L1531.66 124.464L1530.54 125.575L1527.15 122.184L1523.82 125.516L1522.77 124.464L1526.1 121.131L1522.71 117.741L1523.82 116.63Z" fill="white"/>
<path d="M1291.95 287.581L1295.28 290.913L1298.67 287.522L1299.78 288.633L1296.39 292.024L1299.78 295.415L1298.73 296.467L1295.34 293.076L1291.95 296.467L1290.84 295.357L1294.23 291.966L1290.9 288.633L1291.95 287.581Z" fill="white"/>
<path d="M1864.32 502.614L1852.8 505.713L1861.22 514.132L1864.32 502.614Z" fill="white"/>
<path d="M1915.65 674.969L1904.13 678.068L1912.55 686.486L1915.65 674.969Z" fill="white"/>
<path d="M1648.47 219.294L1636.89 222.334L1645.37 230.812L1648.47 219.294Z" fill="url(#paint20_radial_572_16639)"/>
<path d="M1519.9 382.937L1508.39 386.035L1516.86 394.513L1519.9 382.937Z" fill="white"/>
<path d="M1742.77 344.233L1731.2 347.39L1739.67 355.867L1742.77 344.233Z" fill="white"/>
<path d="M1592.05 463.384L1580.53 466.483L1588.95 474.902L1592.05 463.384Z" fill="white"/>
<path d="M1662.21 739.455L1650.63 742.612L1659.05 751.031L1662.21 739.455Z" fill="white"/>
<path d="M1396.89 479.287L1385.38 482.386L1393.8 490.805L1396.89 479.287Z" fill="white"/>
<path d="M1412.39 229.467L1400.87 232.566L1409.29 240.985L1412.39 229.467Z" fill="white"/>
<path d="M1235.06 292.082L1223.49 295.122L1231.96 303.6L1235.06 292.082Z" fill="white"/>
<path d="M1384.5 263.085C1382.92 264.663 1380.29 264.722 1378.65 263.085C1377.07 261.506 1377.02 258.875 1378.65 257.238C1380.23 255.66 1382.86 255.601 1384.5 257.238C1386.08 258.934 1386.08 261.506 1384.5 263.085Z" fill="white"/>
<path d="M1488.98 307.926C1487.4 309.505 1484.77 309.563 1483.13 307.926C1481.55 306.348 1481.49 303.717 1483.13 302.08C1484.71 300.501 1487.34 300.443 1488.98 302.08C1490.61 303.717 1490.61 306.289 1488.98 307.926Z" fill="white"/>
<path d="M1345.21 437.192C1343.63 438.771 1341 438.829 1339.36 437.192C1337.79 435.614 1337.73 432.983 1339.36 431.346C1340.94 429.767 1343.57 429.709 1345.21 431.346C1346.85 432.983 1346.85 435.555 1345.21 437.192Z" fill="url(#paint21_radial_572_16639)"/>
<path d="M1833.16 780.731C1831.58 782.31 1828.95 782.368 1827.31 780.731C1825.73 779.152 1825.67 776.522 1827.31 774.885C1828.89 773.306 1831.52 773.248 1833.16 774.885C1834.8 776.522 1834.74 779.152 1833.16 780.731Z" fill="white"/>
<path d="M1489.21 162.349C1487.63 163.928 1485 163.986 1483.36 162.349C1481.78 160.771 1481.73 158.14 1483.36 156.503C1485 154.866 1487.57 154.866 1489.21 156.503C1490.79 158.081 1490.85 160.712 1489.21 162.349Z" fill="white"/>
<path d="M1599.94 639.071C1598.36 640.65 1595.73 640.708 1594.1 639.071C1592.52 637.493 1592.46 634.862 1594.1 633.225C1595.67 631.646 1598.31 631.588 1599.94 633.225C1601.58 634.862 1601.52 637.493 1599.94 639.071Z" fill="white"/>
<path d="M1737.1 472.213C1735.52 473.792 1732.89 473.85 1731.25 472.213C1729.62 470.576 1729.62 468.004 1731.25 466.367C1732.83 464.788 1735.46 464.73 1737.1 466.367C1738.74 468.004 1738.74 470.576 1737.1 472.213Z" fill="white"/>
<path d="M1937.34 530.151C1935.76 531.73 1933.13 531.789 1931.5 530.151C1929.92 528.573 1929.86 525.942 1931.5 524.305C1933.13 522.668 1935.71 522.668 1937.34 524.305C1938.86 525.942 1938.92 528.573 1937.34 530.151Z" fill="white"/>
<path d="M1698.1 563.827C1696.53 565.406 1693.9 565.464 1692.26 563.827C1690.68 562.249 1690.62 559.618 1692.26 557.981C1693.84 556.402 1696.47 556.344 1698.1 557.981C1699.68 559.676 1699.68 562.249 1698.1 563.827Z" fill="white"/>
<path d="M1545.8 501.212L1542.41 497.821L1545.8 494.43L1544.75 493.378L1541.36 496.769L1537.97 493.378L1536.92 494.43L1540.31 497.821L1536.92 501.212L1537.97 502.264L1541.36 498.873L1544.75 502.264L1545.8 501.212Z" fill="white"/>
<path d="M1610.41 202.164L1607.07 198.831L1610.47 195.44L1609.35 194.33L1605.96 197.721L1602.57 194.33L1601.46 195.44L1604.85 198.831L1601.52 202.164L1602.63 203.275L1605.96 199.942L1609.3 203.275L1610.41 202.164Z" fill="white"/>
<path d="M1444.6 60.2113L1441.27 56.8788L1444.66 53.4879L1443.55 52.377L1440.16 55.768L1436.83 52.4355L1435.77 53.4879L1439.11 56.8203L1435.71 60.2113L1436.83 61.3221L1440.22 57.9312L1443.55 61.2637L1444.6 60.2113Z" fill="white"/>
<path d="M1290.14 235.605L1286.75 232.215L1290.08 228.882L1289.03 227.83L1285.69 231.162L1282.3 227.771L1281.19 228.882L1284.58 232.273L1281.19 235.664L1282.24 236.716L1285.64 233.325L1289.03 236.716L1290.14 235.605Z" fill="white"/>
<path d="M1384.85 422.928L1381.52 419.595L1384.91 416.204L1383.8 415.094L1380.41 418.484L1377.07 415.152L1376.02 416.204L1379.35 419.537L1375.96 422.928L1377.07 424.039L1380.46 420.648L1383.8 423.98L1384.85 422.928Z" fill="white"/>
<path d="M1906.71 502.79L1903.32 499.399L1906.71 496.009L1905.65 494.956L1902.26 498.347L1898.87 494.956L1897.82 496.008L1901.21 499.399L1897.82 502.79L1898.87 503.843L1902.26 500.452L1905.65 503.843L1906.71 502.79Z" fill="white"/>
<path d="M1749.03 764.069L1745.69 760.737L1749.03 757.404L1747.92 756.293L1744.58 759.626L1741.19 756.235L1740.08 757.346L1743.47 760.737L1740.08 764.128L1741.19 765.238L1744.58 761.848L1747.92 765.18L1749.03 764.069Z" fill="white"/>
<path d="M1401.86 190.294V109.496C1401.86 109.145 1402.21 108.794 1402.56 108.794C1402.91 108.794 1403.27 109.145 1403.27 109.496V190.294C1403.27 190.645 1402.91 190.996 1402.56 190.996C1402.15 191.054 1401.8 190.703 1401.86 190.294Z" fill="url(#paint22_linear_572_16639)"/>
<path d="M1401.86 190.295V109.497C1401.86 109.146 1402.21 108.795 1402.56 108.795C1402.91 108.795 1403.27 109.146 1403.27 109.497V190.295C1403.27 190.646 1402.91 190.997 1402.56 190.997C1402.15 191.055 1401.8 190.705 1401.86 190.295Z" fill="url(#paint23_radial_572_16639)"/>
<path d="M1396.13 438.538V357.739C1396.13 357.389 1396.48 357.038 1396.83 357.038C1397.19 357.038 1397.54 357.389 1397.54 357.739V438.538C1397.54 438.889 1397.19 439.239 1396.83 439.239C1396.43 439.181 1396.13 438.889 1396.13 438.538Z" fill="url(#paint24_linear_572_16639)"/>
<path d="M1396.13 438.537V357.738C1396.13 357.387 1396.48 357.037 1396.83 357.037C1397.18 357.037 1397.54 357.387 1397.54 357.738V438.537C1397.54 438.887 1397.18 439.238 1396.83 439.238C1396.42 439.18 1396.13 438.887 1396.13 438.537Z" fill="white"/>
<path d="M1885.43 660.879L1885.43 580.08C1885.43 579.729 1885.78 579.379 1886.13 579.379C1886.48 579.379 1886.83 579.729 1886.83 580.08V660.879C1886.83 661.229 1886.48 661.58 1886.13 661.58C1885.78 661.58 1885.48 661.288 1885.43 660.879Z" fill="url(#paint25_linear_572_16639)"/>
<path d="M1885.43 660.879L1885.43 580.08C1885.43 579.729 1885.78 579.379 1886.13 579.379C1886.48 579.379 1886.83 579.729 1886.83 580.08V660.879C1886.83 661.229 1886.48 661.58 1886.13 661.58C1885.78 661.58 1885.48 661.288 1885.43 660.879Z" fill="white"/>
<path d="M1837.66 515.242V434.444C1837.66 434.093 1838.01 433.742 1838.36 433.742C1838.71 433.742 1839.06 434.093 1839.06 434.444V515.242C1839.06 515.593 1838.71 515.944 1838.36 515.944C1838.01 515.944 1837.72 515.652 1837.66 515.242Z" fill="url(#paint26_linear_572_16639)"/>
<path d="M1837.66 515.243V434.445C1837.66 434.094 1838.01 433.743 1838.36 433.743C1838.71 433.743 1839.06 434.094 1839.06 434.445V515.243C1839.06 515.594 1838.71 515.945 1838.36 515.945C1838.01 515.945 1837.72 515.653 1837.66 515.243Z" fill="white"/>
<path d="M1548.08 678.885L1548.02 598.145C1548.02 597.795 1548.37 597.444 1548.73 597.444C1549.08 597.444 1549.43 597.795 1549.43 598.145L1549.43 678.944C1549.43 679.295 1549.08 679.645 1548.73 679.645C1548.43 679.587 1548.08 679.236 1548.08 678.885Z" fill="url(#paint27_linear_572_16639)"/>
<path d="M1548.08 678.885L1548.02 598.145C1548.02 597.795 1548.37 597.444 1548.73 597.444C1549.08 597.444 1549.43 597.795 1549.43 598.145L1549.43 678.944C1549.43 679.295 1549.08 679.645 1548.73 679.645C1548.43 679.587 1548.08 679.236 1548.08 678.885Z" fill="url(#paint28_radial_572_16639)"/>
<path d="M1675.01 564.003V520.505C1675.01 520.271 1675.19 520.095 1675.36 520.154C1675.59 520.154 1675.77 520.329 1675.71 520.505V564.003C1675.71 564.236 1675.54 564.412 1675.36 564.353C1675.19 564.295 1675.07 564.178 1675.01 564.003Z" fill="url(#paint29_linear_572_16639)"/>
<path d="M1675.01 564.003V520.505C1675.01 520.271 1675.19 520.095 1675.36 520.154C1675.59 520.154 1675.77 520.329 1675.71 520.505V564.003C1675.71 564.236 1675.54 564.412 1675.36 564.353C1675.19 564.295 1675.07 564.178 1675.01 564.003Z" fill="url(#paint30_radial_572_16639)"/>
<path d="M1543.81 148.083V104.585C1543.81 104.351 1543.99 104.176 1544.16 104.234C1544.4 104.234 1544.57 104.41 1544.52 104.585L1544.52 148.083C1544.52 148.317 1544.34 148.492 1544.16 148.434C1543.99 148.492 1543.81 148.317 1543.81 148.083Z" fill="url(#paint31_linear_572_16639)"/>
<path d="M1543.81 148.083V104.585C1543.81 104.352 1543.99 104.176 1544.17 104.235C1544.4 104.235 1544.57 104.41 1544.52 104.585V148.083C1544.52 148.317 1544.34 148.492 1544.17 148.434C1543.99 148.492 1543.81 148.317 1543.81 148.083Z" fill="url(#paint32_radial_572_16639)"/>
<path d="M1448.81 560.67V517.172C1448.81 516.939 1448.99 516.763 1449.16 516.822C1449.4 516.822 1449.57 516.997 1449.51 517.172V560.67C1449.51 560.904 1449.34 561.08 1449.16 561.021C1448.99 561.08 1448.81 560.904 1448.81 560.67Z" fill="url(#paint33_linear_572_16639)"/>
<path d="M1448.81 560.67V517.172C1448.81 516.938 1448.99 516.763 1449.16 516.821C1449.39 516.821 1449.57 516.997 1449.51 517.172V560.67C1449.51 560.904 1449.34 561.079 1449.16 561.021C1448.99 561.079 1448.81 560.904 1448.81 560.67Z" fill="url(#paint34_radial_572_16639)"/>
<path d="M1581.64 405.621L1581.64 362.123C1581.64 361.889 1581.82 361.714 1581.99 361.772C1582.23 361.772 1582.4 361.948 1582.34 362.123V405.621C1582.34 405.855 1582.17 406.03 1581.99 405.972C1581.76 405.972 1581.64 405.855 1581.64 405.621Z" fill="url(#paint35_linear_572_16639)"/>
<path d="M1581.64 405.621L1581.64 362.123C1581.64 361.889 1581.82 361.714 1581.99 361.772C1582.23 361.772 1582.4 361.948 1582.34 362.123V405.621C1582.34 405.855 1582.17 406.03 1581.99 405.972C1581.76 405.972 1581.64 405.855 1581.64 405.621Z" fill="url(#paint36_radial_572_16639)"/>
<path d="M1394.55 289.509V246.011C1394.55 245.777 1394.73 245.602 1394.9 245.66C1395.14 245.66 1395.31 245.835 1395.26 246.011V289.509C1395.26 289.743 1395.08 289.918 1394.9 289.859C1394.73 289.918 1394.55 289.743 1394.55 289.509Z" fill="url(#paint37_linear_572_16639)"/>
<path d="M1394.55 289.51L1394.55 246.012C1394.55 245.779 1394.73 245.603 1394.91 245.662C1395.14 245.662 1395.31 245.837 1395.26 246.012V289.51C1395.26 289.744 1395.08 289.919 1394.91 289.861C1394.73 289.919 1394.55 289.744 1394.55 289.51Z" fill="url(#paint38_radial_572_16639)"/>
<path d="M1970.61 631.589V588.091C1970.61 587.857 1970.78 587.682 1970.96 587.74C1971.19 587.74 1971.37 587.916 1971.31 588.091V631.589C1971.31 631.823 1971.13 631.998 1970.96 631.94C1970.78 631.998 1970.61 631.823 1970.61 631.589Z" fill="url(#paint39_linear_572_16639)"/>
<path d="M1970.61 631.589V588.091C1970.61 587.857 1970.78 587.682 1970.96 587.74C1971.19 587.74 1971.37 587.916 1971.31 588.091V631.589C1971.31 631.823 1971.13 631.998 1970.96 631.94C1970.78 631.998 1970.61 631.823 1970.61 631.589Z" fill="url(#paint40_radial_572_16639)"/>
<path d="M1733.71 671.227V627.729C1733.71 627.495 1733.88 627.32 1734.06 627.378C1734.29 627.378 1734.47 627.554 1734.41 627.729V671.227C1734.41 671.461 1734.24 671.636 1734.06 671.578C1733.88 671.636 1733.71 671.461 1733.71 671.227Z" fill="url(#paint41_linear_572_16639)"/>
<path d="M1733.71 671.227V627.729C1733.71 627.495 1733.88 627.32 1734.06 627.378C1734.29 627.378 1734.47 627.554 1734.41 627.729V671.227C1734.41 671.461 1734.24 671.636 1734.06 671.578C1733.88 671.636 1733.71 671.461 1733.71 671.227Z" fill="url(#paint42_radial_572_16639)"/>
<path d="M1617.07 682.861V639.363C1617.07 639.129 1617.25 638.954 1617.42 639.012C1617.66 639.012 1617.83 639.188 1617.77 639.363L1617.77 682.861C1617.77 683.095 1617.6 683.27 1617.42 683.212C1617.25 683.27 1617.07 683.095 1617.07 682.861Z" fill="url(#paint43_linear_572_16639)"/>
<path d="M1617.07 682.861V639.364C1617.07 639.13 1617.25 638.954 1617.42 639.013C1617.66 639.013 1617.83 639.188 1617.77 639.364V682.861C1617.77 683.095 1617.6 683.271 1617.42 683.212C1617.25 683.271 1617.07 683.095 1617.07 682.861Z" fill="url(#paint44_radial_572_16639)"/>
<path d="M1614.85 291.265V247.767C1614.85 247.533 1615.03 247.357 1615.2 247.416C1615.43 247.416 1615.61 247.591 1615.55 247.767V291.265C1615.55 291.498 1615.38 291.674 1615.2 291.615C1615.03 291.557 1614.79 291.44 1614.85 291.265Z" fill="url(#paint45_linear_572_16639)"/>
<path d="M1614.85 291.265V247.767C1614.85 247.533 1615.03 247.357 1615.2 247.416C1615.43 247.416 1615.61 247.591 1615.55 247.767V291.265C1615.55 291.498 1615.38 291.674 1615.2 291.615C1615.03 291.557 1614.79 291.44 1614.85 291.265Z" fill="url(#paint46_radial_572_16639)"/>
<path d="M1761.71 526.527V456.135C1761.71 455.784 1762.01 455.492 1762.3 455.55C1762.65 455.55 1762.94 455.843 1762.88 456.135V526.527C1762.88 526.877 1762.59 527.17 1762.3 527.111C1762.01 527.17 1761.71 526.877 1761.71 526.527Z" fill="url(#paint47_linear_572_16639)"/>
<path d="M1761.71 526.527V456.135C1761.71 455.784 1762.01 455.492 1762.3 455.55C1762.65 455.55 1762.94 455.843 1762.88 456.135V526.527C1762.88 526.877 1762.59 527.17 1762.3 527.111C1762.01 527.17 1761.71 526.877 1761.71 526.527Z" fill="url(#paint48_radial_572_16639)"/>
<path d="M1530.19 401.995L1530.25 262.206C1530.25 261.504 1530.78 260.978 1531.48 260.978C1532.18 260.978 1532.71 261.504 1532.71 262.206V401.937C1532.71 402.638 1532.18 403.164 1531.48 403.164C1530.78 403.164 1530.25 402.638 1530.19 401.995Z" fill="url(#paint49_linear_572_16639)"/>
<path d="M1530.19 401.997L1530.25 262.207C1530.25 261.506 1530.78 260.98 1531.48 260.98C1532.18 260.98 1532.71 261.506 1532.71 262.207V401.938C1532.71 402.64 1532.18 403.166 1531.48 403.166C1530.78 403.166 1530.25 402.64 1530.19 401.997Z" fill="url(#paint50_radial_572_16639)"/>
<path d="M1986.51 615.102V475.371C1986.51 474.669 1987.04 474.143 1987.74 474.143C1988.44 474.143 1988.97 474.669 1988.97 475.371V615.102C1988.97 615.804 1988.44 616.33 1987.74 616.33C1987.04 616.33 1986.51 615.804 1986.51 615.102Z" fill="url(#paint51_linear_572_16639)"/>
<path d="M1986.51 615.101V475.37C1986.51 474.669 1987.04 474.142 1987.74 474.142C1988.44 474.142 1988.97 474.668 1988.97 475.37V615.101C1988.97 615.803 1988.44 616.329 1987.74 616.329C1987.04 616.329 1986.51 615.803 1986.51 615.101Z" fill="url(#paint52_radial_572_16639)"/>
<path d="M1604.91 613.873L1604.97 474.084C1604.97 473.382 1605.61 472.856 1606.31 472.856C1607.02 472.856 1607.66 473.382 1607.66 474.084V613.815C1607.66 614.516 1607.02 615.042 1606.31 615.042C1605.55 615.101 1604.97 614.516 1604.91 613.873Z" fill="url(#paint53_linear_572_16639)"/>
<path d="M1604.91 613.873L1604.97 474.084C1604.97 473.382 1605.61 472.856 1606.31 472.856C1607.02 472.856 1607.66 473.382 1607.66 474.084V613.815C1607.66 614.516 1607.02 615.042 1606.31 615.042C1605.55 615.101 1604.97 614.516 1604.91 613.873Z" fill="url(#paint54_radial_572_16639)"/>
<path d="M1836.2 719.226L1836.14 579.437C1836.14 578.735 1836.78 578.209 1837.48 578.209C1838.19 578.209 1838.83 578.735 1838.83 579.437V719.167C1838.83 719.869 1838.19 720.395 1837.48 720.395C1836.78 720.395 1836.14 719.869 1836.2 719.226Z" fill="url(#paint55_linear_572_16639)"/>
<path d="M1836.2 719.226L1836.14 579.437C1836.14 578.735 1836.78 578.209 1837.48 578.209C1838.19 578.209 1838.83 578.735 1838.83 579.437V719.167C1838.83 719.869 1838.19 720.395 1837.48 720.395C1836.78 720.395 1836.14 719.869 1836.2 719.226Z" fill="url(#paint56_radial_572_16639)"/>
<path d="M1453.31 141.069V1.33776C1453.31 0.636179 1453.84 0.109995 1454.54 0.109995C1455.24 0.109995 1455.77 0.636179 1455.77 1.33776V141.069C1455.77 141.77 1455.24 142.296 1454.54 142.296C1453.84 142.296 1453.31 141.77 1453.31 141.069Z" fill="url(#paint57_linear_572_16639)"/>
<path d="M1453.31 141.068V1.33714C1453.31 0.635558 1453.84 0.109375 1454.54 0.109375C1455.24 0.109375 1455.77 0.635559 1455.77 1.33714V141.068C1455.77 141.77 1455.24 142.296 1454.54 142.296C1453.84 142.296 1453.31 141.77 1453.31 141.068Z" fill="url(#paint58_radial_572_16639)"/>
<path d="M1215.54 334.88V238.997C1215.54 238.53 1215.89 238.179 1216.35 238.179C1216.82 238.179 1217.17 238.53 1217.17 238.997V334.88C1217.17 335.348 1216.82 335.698 1216.35 335.698C1215.94 335.757 1215.54 335.348 1215.54 334.88Z" fill="url(#paint59_linear_572_16639)"/>
<path d="M1215.54 334.88V238.997C1215.54 238.53 1215.89 238.179 1216.35 238.179C1216.82 238.179 1217.17 238.53 1217.17 238.997V334.88C1217.17 335.348 1216.82 335.698 1216.35 335.698C1215.94 335.757 1215.54 335.348 1215.54 334.88Z" fill="url(#paint60_radial_572_16639)"/>
<path d="M1664.55 342.246L1664.55 199.709C1664.55 199.007 1665.07 198.481 1665.77 198.481C1666.47 198.481 1667 199.007 1667 199.709V342.129C1667 342.831 1666.47 343.357 1665.77 343.357C1665.13 343.415 1664.55 342.83 1664.55 342.246Z" fill="url(#paint61_linear_572_16639)"/>
<path d="M1664.55 342.246L1664.55 199.709C1664.55 199.007 1665.07 198.481 1665.77 198.481C1666.47 198.481 1667 199.007 1667 199.709V342.129C1667 342.831 1666.47 343.357 1665.77 343.357C1665.13 343.415 1664.55 342.83 1664.55 342.246Z" fill="url(#paint62_radial_572_16639)"/>
<path d="M1477.46 349.26V272.438C1477.46 272.087 1477.75 271.795 1478.1 271.795C1478.45 271.795 1478.74 272.087 1478.74 272.438L1478.74 349.26C1478.74 349.611 1478.45 349.904 1478.1 349.904C1477.75 349.904 1477.46 349.611 1477.46 349.26Z" fill="url(#paint63_linear_572_16639)"/>
<path d="M1477.46 349.261V272.439C1477.46 272.088 1477.75 271.796 1478.1 271.796C1478.45 271.796 1478.74 272.088 1478.74 272.439V349.261C1478.74 349.612 1478.45 349.905 1478.1 349.905C1477.75 349.905 1477.46 349.612 1477.46 349.261Z" fill="url(#paint64_radial_572_16639)"/>
<path d="M1682.9 383.756V320.731C1682.9 320.381 1683.14 320.147 1683.43 320.205C1683.78 320.205 1684.01 320.439 1683.95 320.731V383.756C1683.95 384.107 1683.72 384.341 1683.43 384.283C1683.08 384.283 1682.84 384.049 1682.9 383.756Z" fill="url(#paint65_linear_572_16639)"/>
<path d="M1682.9 383.755V320.73C1682.9 320.379 1683.14 320.146 1683.43 320.204C1683.78 320.204 1684.01 320.438 1683.96 320.73L1683.96 383.755C1683.96 384.106 1683.72 384.34 1683.43 384.281C1683.08 384.281 1682.84 384.048 1682.9 383.755Z" fill="url(#paint66_radial_572_16639)"/>
<path d="M1759.14 908.068V845.043C1759.14 844.692 1759.37 844.459 1759.67 844.517C1760.02 844.517 1760.25 844.751 1760.19 845.043V908.068C1760.19 908.419 1759.96 908.653 1759.67 908.594C1759.37 908.653 1759.14 908.419 1759.14 908.068Z" fill="url(#paint67_linear_572_16639)"/>
<path d="M1759.14 908.068V845.043C1759.14 844.692 1759.37 844.459 1759.67 844.517C1760.02 844.517 1760.25 844.751 1760.19 845.043V908.068C1760.19 908.419 1759.96 908.653 1759.67 908.594C1759.37 908.653 1759.14 908.419 1759.14 908.068Z" fill="url(#paint68_radial_572_16639)"/>
<path d="M1348.48 307.868L1348.42 149.136C1348.42 148.317 1349.01 147.732 1349.83 147.732C1350.65 147.732 1351.23 148.317 1351.23 149.136V307.809C1351.23 308.628 1350.65 309.212 1349.83 309.212C1349.13 309.212 1348.48 308.569 1348.48 307.868Z" fill="url(#paint69_linear_572_16639)"/>
<path d="M1348.48 307.868L1348.42 149.136C1348.42 148.317 1349.01 147.732 1349.83 147.732C1350.65 147.732 1351.23 148.317 1351.23 149.136V307.809C1351.23 308.628 1350.65 309.212 1349.83 309.212C1349.13 309.212 1348.48 308.569 1348.48 307.868Z" fill="url(#paint70_radial_572_16639)"/>
<path d="M1655.6 845.452V764.653C1655.6 764.302 1655.95 763.952 1656.3 763.952C1656.65 763.952 1657 764.302 1657 764.653V845.452C1657 845.802 1656.65 846.153 1656.3 846.153C1655.95 846.153 1655.6 845.802 1655.6 845.452Z" fill="url(#paint71_linear_572_16639)"/>
<path d="M1655.6 845.453V764.654C1655.6 764.304 1655.95 763.953 1656.3 763.953C1656.65 763.953 1657 764.303 1657 764.654V845.453C1657 845.803 1656.65 846.154 1656.3 846.154C1655.95 846.154 1655.6 845.803 1655.6 845.453Z" fill="url(#paint72_radial_572_16639)"/>
<path d="M1790.36 801.311V757.813C1790.36 757.579 1790.54 757.404 1790.71 757.462C1790.95 757.462 1791.12 757.638 1791.06 757.813V801.311C1791.06 801.545 1790.89 801.72 1790.71 801.662C1790.54 801.72 1790.36 801.545 1790.36 801.311Z" fill="url(#paint73_linear_572_16639)"/>
<path d="M1790.36 801.311V757.813C1790.36 757.579 1790.54 757.404 1790.71 757.462C1790.95 757.462 1791.12 757.638 1791.06 757.813V801.311C1791.06 801.545 1790.89 801.72 1790.71 801.662C1790.54 801.72 1790.36 801.545 1790.36 801.311Z" fill="white"/>
<path d="M1689.57 784.941L1689.57 645.21C1689.57 644.508 1690.09 643.982 1690.8 643.982C1691.5 643.982 1692.02 644.508 1692.02 645.21L1691.97 784.999C1691.97 785.701 1691.44 786.227 1690.74 786.227C1690.09 786.169 1689.57 785.642 1689.57 784.941Z" fill="url(#paint74_linear_572_16639)"/>
<path d="M1689.57 784.941L1689.57 645.21C1689.57 644.508 1690.09 643.982 1690.8 643.982C1691.5 643.982 1692.02 644.508 1692.02 645.21L1691.97 784.999C1691.97 785.701 1691.44 786.227 1690.74 786.227C1690.09 786.169 1689.57 785.642 1689.57 784.941Z" fill="white"/>
<path d="M1370.41 599.901V441.227C1370.41 440.409 1370.99 439.824 1371.81 439.824C1372.63 439.824 1373.21 440.409 1373.21 441.227L1373.16 599.959C1373.16 600.778 1372.57 601.362 1371.75 601.362C1370.99 601.304 1370.41 600.719 1370.41 599.901Z" fill="url(#paint75_linear_572_16639)"/>
<path d="M1370.41 599.899V441.226C1370.41 440.407 1370.99 439.823 1371.81 439.823C1372.63 439.823 1373.21 440.407 1373.21 441.226L1373.16 599.958C1373.16 600.776 1372.57 601.361 1371.75 601.361C1370.99 601.302 1370.41 600.718 1370.41 599.899Z" fill="url(#paint76_radial_572_16639)"/>
<path d="M1277.57 450.698L1277.63 310.909C1277.63 310.207 1278.15 309.681 1278.85 309.681C1279.55 309.681 1280.08 310.207 1280.08 310.909V450.64C1280.08 451.341 1279.55 451.867 1278.85 451.867C1278.15 451.867 1277.63 451.341 1277.57 450.698Z" fill="url(#paint77_linear_572_16639)"/>
<path d="M1277.57 450.698L1277.62 310.909C1277.62 310.207 1278.15 309.681 1278.85 309.681C1279.55 309.681 1280.08 310.207 1280.08 310.909V450.639C1280.08 451.341 1279.55 451.867 1278.85 451.867C1278.15 451.867 1277.62 451.341 1277.57 450.698Z" fill="white"/>
<path d="M200.326 202.017L203.366 213.593L211.844 205.116L200.326 202.017Z" fill="url(#paint78_radial_572_16639)"/>
<path d="M339.298 168.049L342.396 179.566L350.815 171.147L339.298 168.049Z" fill="url(#paint79_radial_572_16639)"/>
<path d="M-83.0524 417.927L-79.9537 429.445L-71.4763 420.968L-83.0524 417.927Z" fill="url(#paint80_radial_572_16639)"/>
<path d="M183.606 597.824L186.704 609.342L195.182 600.865L183.606 597.824Z" fill="url(#paint81_radial_572_16639)"/>
<path d="M-289.258 620.041L-286.159 631.558L-277.74 623.139L-289.258 620.041Z" fill="url(#paint82_radial_572_16639)"/>
<path d="M115.143 420.617L118.183 432.193L126.661 423.716L115.143 420.617Z" fill="url(#paint83_radial_572_16639)"/>
<path d="M410.099 419.74L413.197 431.258L421.616 422.839L410.099 419.74Z" fill="url(#paint84_radial_572_16639)"/>
<path d="M132.332 729.662L135.431 741.18L143.908 732.702L132.332 729.662Z" fill="white"/>
<path d="M-72.763 654.008L-69.7228 665.584L-61.2454 657.107L-72.763 654.008Z" fill="url(#paint85_radial_572_16639)"/>
<path d="M-37.2744 846.884L-34.2343 858.46L-25.7569 849.983L-37.2744 846.884Z" fill="url(#paint86_radial_572_16639)"/>
<path d="M-30.4925 645.765C-28.9139 647.343 -28.8554 649.974 -30.4925 651.611C-32.071 653.19 -34.7019 653.248 -36.3389 651.611C-37.9175 650.032 -37.976 647.402 -36.3389 645.765C-34.7019 644.128 -32.1295 644.128 -30.4925 645.765Z" fill="url(#paint87_radial_572_16639)"/>
<path d="M5.69693 583.15C4.08247 584.764 1.4649 584.764 -0.149567 583.15C-1.76403 581.535 -1.76403 578.918 -0.149567 577.303C1.4649 575.689 4.08247 575.689 5.69693 577.303C7.31139 578.918 7.31139 581.535 5.69693 583.15Z" fill="url(#paint88_radial_572_16639)"/>
<path d="M195.942 696.922C194.327 698.537 191.71 698.537 190.095 696.922C188.481 695.308 188.481 692.69 190.095 691.076C191.71 689.461 194.327 689.461 195.942 691.076C197.556 692.69 197.556 695.308 195.942 696.922Z" fill="url(#paint89_radial_572_16639)"/>
<path d="M445.587 254.577C443.972 256.191 441.355 256.191 439.74 254.577C438.126 252.962 438.126 250.345 439.74 248.73C441.355 247.116 443.972 247.116 445.587 248.73C447.201 250.345 447.201 252.962 445.587 254.577Z" fill="url(#paint90_radial_572_16639)"/>
<path d="M-139.997 577.186C-138.418 578.764 -138.36 581.395 -139.997 583.032C-141.575 584.611 -144.206 584.669 -145.843 583.032C-147.422 581.454 -147.48 578.823 -145.843 577.186C-144.206 575.549 -141.575 575.607 -139.997 577.186Z" fill="url(#paint91_radial_572_16639)"/>
<path d="M323.044 501.181C324.623 502.76 324.681 505.391 323.044 507.028C321.466 508.606 318.835 508.665 317.198 507.028C315.619 505.449 315.561 502.818 317.198 501.181C318.835 499.544 321.407 499.544 323.044 501.181Z" fill="url(#paint92_radial_572_16639)"/>
<path d="M169.925 329.237C171.503 330.815 171.562 333.446 169.925 335.083C168.346 336.662 165.715 336.72 164.078 335.083C162.5 333.505 162.441 330.874 164.078 329.237C165.715 327.6 168.346 327.658 169.925 329.237Z" fill="url(#paint93_radial_572_16639)"/>
<path d="M227.922 134.899C226.307 136.514 223.69 136.514 222.075 134.899C220.461 133.285 220.461 130.667 222.075 129.053C223.69 127.438 226.307 127.438 227.922 129.053C229.536 130.667 229.536 133.285 227.922 134.899Z" fill="url(#paint94_radial_572_16639)"/>
<path d="M293.169 384.544C291.554 386.159 288.937 386.159 287.322 384.544C285.708 382.93 285.708 380.312 287.322 378.698C288.937 377.083 291.554 377.083 293.169 378.698C294.783 380.312 294.783 382.93 293.169 384.544Z" fill="white"/>
<path d="M288.258 466.863L284.925 470.196L281.534 466.805L280.423 467.915L283.814 471.306L280.482 474.639L281.534 475.691L284.867 472.359L288.258 475.75L289.369 474.639L285.978 471.248L289.31 467.915L288.258 466.863Z" fill="url(#paint95_radial_572_16639)"/>
<path d="M-100.125 455.93L-103.457 459.262L-106.79 455.93L-107.901 457.04L-104.568 460.373L-107.959 463.764L-106.848 464.875L-103.457 461.484L-100.066 464.875L-98.9554 463.764L-102.346 460.373L-99.0139 457.04L-100.125 455.93Z" fill="url(#paint96_radial_572_16639)"/>
<path d="M-221.088 697.916L-224.42 701.249L-227.811 697.858L-228.922 698.968L-225.531 702.359L-228.863 705.692L-227.753 706.803L-224.42 703.47L-221.088 706.803L-219.977 705.692L-223.309 702.359L-219.977 699.027L-221.088 697.916Z" fill="url(#paint97_radial_572_16639)"/>
<path d="M-93.7518 791.81L-97.1427 795.201L-100.534 791.81L-101.586 792.863L-98.1951 796.254L-101.586 799.645L-100.534 800.697L-97.1427 797.306L-93.7518 800.697L-92.6994 799.645L-96.0904 796.254L-92.6994 792.863L-93.7518 791.81Z" fill="white"/>
<path d="M93.5112 697.039L90.1787 700.371L86.8462 697.039L85.7354 698.15L89.0678 701.482L85.7353 704.815L86.8462 705.926L90.1787 702.593L93.5112 705.926L94.622 704.815L91.2895 701.482L94.622 698.15L93.5112 697.039Z" fill="white"/>
<path d="M200.502 159.63L197.111 163.021L193.779 159.688L192.726 160.741L196.059 164.073L192.668 167.464L193.779 168.575L197.17 165.184L200.502 168.516L201.555 167.464L198.222 164.131L201.613 160.741L200.502 159.63Z" fill="white"/>
<path d="M432.373 330.581L429.041 333.913L425.65 330.522L424.539 331.633L427.93 335.024L424.539 338.415L425.591 339.467L428.982 336.076L432.373 339.467L433.484 338.357L430.093 334.966L433.426 331.633L432.373 330.581Z" fill="white"/>
<path d="M-139.997 545.614L-128.479 548.713L-136.898 557.132L-139.997 545.614Z" fill="white"/>
<path d="M-191.329 717.969L-179.811 721.068L-188.23 729.486L-191.329 717.969Z" fill="white"/>
<path d="M75.8553 262.294L87.4313 265.334L78.9539 273.812L75.8553 262.294Z" fill="url(#paint98_radial_572_16639)"/>
<path d="M204.42 425.937L215.937 429.035L207.46 437.513L204.42 425.937Z" fill="white"/>
<path d="M-18.4483 387.233L-6.87225 390.39L-15.3497 398.867L-18.4483 387.233Z" fill="white"/>
<path d="M132.274 506.384L143.792 509.483L135.373 517.902L132.274 506.384Z" fill="white"/>
<path d="M62.1162 782.455L73.6923 785.612L65.2733 794.031L62.1162 782.455Z" fill="white"/>
<path d="M327.429 522.287L338.947 525.386L330.528 533.805L327.429 522.287Z" fill="white"/>
<path d="M311.936 272.467L323.454 275.566L315.035 283.985L311.936 272.467Z" fill="white"/>
<path d="M489.261 335.082L500.837 338.122L492.359 346.6L489.261 335.082Z" fill="white"/>
<path d="M339.824 306.085C341.403 307.663 344.034 307.722 345.671 306.085C347.249 304.506 347.308 301.875 345.671 300.238C344.092 298.66 341.461 298.601 339.824 300.238C338.246 301.934 338.246 304.506 339.824 306.085Z" fill="white"/>
<path d="M235.348 350.926C236.926 352.505 239.557 352.563 241.194 350.926C242.773 349.348 242.831 346.717 241.194 345.08C239.616 343.501 236.985 343.443 235.348 345.08C233.711 346.717 233.711 349.289 235.348 350.926Z" fill="white"/>
<path d="M379.112 480.192C380.691 481.771 383.322 481.829 384.959 480.192C386.537 478.614 386.596 475.983 384.959 474.346C383.38 472.767 380.749 472.709 379.112 474.346C377.475 475.983 377.475 478.555 379.112 480.192Z" fill="url(#paint99_radial_572_16639)"/>
<path d="M-108.835 823.731C-107.257 825.31 -104.626 825.368 -102.989 823.731C-101.41 822.152 -101.352 819.522 -102.989 817.885C-104.567 816.306 -107.198 816.248 -108.835 817.885C-110.472 819.522 -110.414 822.152 -108.835 823.731Z" fill="white"/>
<path d="M235.114 205.349C236.692 206.928 239.323 206.986 240.96 205.349C242.539 203.771 242.597 201.14 240.96 199.503C239.323 197.866 236.751 197.866 235.114 199.503C233.535 201.081 233.477 203.712 235.114 205.349Z" fill="white"/>
<path d="M124.381 682.071C125.96 683.65 128.59 683.708 130.227 682.071C131.806 680.493 131.864 677.862 130.227 676.225C128.649 674.646 126.018 674.588 124.381 676.225C122.744 677.862 122.802 680.493 124.381 682.071Z" fill="white"/>
<path d="M-12.7777 515.213C-11.1992 516.792 -8.56823 516.85 -6.93121 515.213C-5.2942 513.576 -5.2942 511.004 -6.93121 509.367C-8.50976 507.788 -11.1407 507.73 -12.7777 509.367C-14.4147 511.004 -14.4147 513.576 -12.7777 515.213Z" fill="white"/>
<path d="M-213.019 573.151C-211.441 574.73 -208.81 574.789 -207.173 573.151C-205.594 571.573 -205.536 568.942 -207.173 567.305C-208.81 565.668 -211.382 565.668 -213.019 567.305C-214.539 568.942 -214.598 571.573 -213.019 573.151Z" fill="white"/>
<path d="M26.2182 606.827C27.7968 608.406 30.4277 608.464 32.0647 606.827C33.6433 605.249 33.7017 602.618 32.0647 600.981C30.4862 599.402 27.8552 599.344 26.2182 600.981C24.6397 602.676 24.6397 605.249 26.2182 606.827Z" fill="white"/>
<path d="M178.52 544.212L181.911 540.821L178.52 537.43L179.572 536.378L182.963 539.769L186.354 536.378L187.406 537.43L184.015 540.821L187.406 544.212L186.354 545.264L182.963 541.873L179.572 545.264L178.52 544.212Z" fill="white"/>
<path d="M113.916 245.164L117.249 241.831L113.858 238.44L114.968 237.33L118.359 240.721L121.75 237.33L122.861 238.44L119.47 241.831L122.803 245.164L121.692 246.275L118.359 242.942L115.027 246.275L113.916 245.164Z" fill="white"/>
<path d="M279.722 103.211L283.055 99.8788L279.664 96.4878L280.775 95.377L284.166 98.768L287.498 95.4355L288.551 96.4878L285.218 99.8203L288.609 103.211L287.498 104.322L284.107 100.931L280.775 104.264L279.722 103.211Z" fill="white"/>
<path d="M434.186 278.605L437.577 275.215L434.245 271.882L435.297 270.83L438.629 274.162L442.02 270.771L443.131 271.882L439.74 275.273L443.131 278.664L442.079 279.716L438.688 276.325L435.297 279.716L434.186 278.605Z" fill="white"/>
<path d="M339.473 465.928L342.806 462.595L339.415 459.204L340.526 458.094L343.917 461.484L347.249 458.152L348.302 459.204L344.969 462.537L348.36 465.928L347.249 467.039L343.858 463.648L340.526 466.98L339.473 465.928Z" fill="white"/>
<path d="M-182.384 545.79L-178.993 542.399L-182.384 539.009L-181.332 537.956L-177.941 541.347L-174.55 537.956L-173.497 539.008L-176.888 542.399L-173.497 545.79L-174.55 546.843L-177.941 543.452L-181.332 546.843L-182.384 545.79Z" fill="white"/>
<path d="M-24.7037 807.069L-21.3712 803.737L-24.7037 800.404L-23.5929 799.293L-20.2604 802.626L-16.8695 799.235L-15.7586 800.346L-19.1496 803.737L-15.7586 807.128L-16.8694 808.238L-20.2604 804.848L-23.5929 808.18L-24.7037 807.069Z" fill="white"/>
<path d="M322.461 233.294V152.496C322.461 152.145 322.11 151.794 321.76 151.794C321.409 151.794 321.058 152.145 321.058 152.496V233.294C321.058 233.645 321.409 233.996 321.76 233.996C322.169 234.054 322.52 233.703 322.461 233.294Z" fill="url(#paint100_linear_572_16639)"/>
<path d="M322.461 233.295V152.497C322.461 152.146 322.11 151.795 321.76 151.795C321.409 151.795 321.058 152.146 321.058 152.497V233.295C321.058 233.646 321.409 233.997 321.76 233.997C322.169 234.055 322.52 233.705 322.461 233.295Z" fill="url(#paint101_radial_572_16639)"/>
<path d="M328.19 481.538V400.739C328.19 400.389 327.839 400.038 327.489 400.038C327.138 400.038 326.787 400.389 326.787 400.739V481.538C326.787 481.889 327.138 482.239 327.489 482.239C327.898 482.181 328.19 481.889 328.19 481.538Z" fill="url(#paint102_linear_572_16639)"/>
<path d="M328.191 481.537L328.191 400.738C328.191 400.387 327.84 400.037 327.489 400.037C327.138 400.037 326.788 400.387 326.788 400.738V481.537C326.788 481.887 327.138 482.238 327.489 482.238C327.898 482.18 328.191 481.887 328.191 481.537Z" fill="white"/>
<path d="M-161.102 703.879L-161.102 623.08C-161.102 622.729 -161.453 622.379 -161.804 622.379C-162.155 622.379 -162.505 622.729 -162.505 623.08L-162.505 703.879C-162.505 704.229 -162.155 704.58 -161.804 704.58C-161.453 704.58 -161.161 704.288 -161.102 703.879Z" fill="url(#paint103_linear_572_16639)"/>
<path d="M-161.102 703.879L-161.102 623.08C-161.102 622.729 -161.453 622.379 -161.804 622.379C-162.155 622.379 -162.505 622.729 -162.505 623.08L-162.505 703.879C-162.505 704.229 -162.155 704.58 -161.804 704.58C-161.453 704.58 -161.161 704.288 -161.102 703.879Z" fill="white"/>
<path d="M-113.336 558.242V477.444C-113.336 477.093 -113.687 476.742 -114.037 476.742C-114.388 476.742 -114.739 477.093 -114.739 477.444L-114.739 558.242C-114.739 558.593 -114.388 558.944 -114.037 558.944C-113.687 558.944 -113.394 558.652 -113.336 558.242Z" fill="url(#paint104_linear_572_16639)"/>
<path d="M-113.336 558.243V477.445C-113.336 477.094 -113.687 476.743 -114.038 476.743C-114.389 476.743 -114.739 477.094 -114.739 477.445L-114.739 558.243C-114.739 558.594 -114.389 558.945 -114.038 558.945C-113.687 558.945 -113.395 558.653 -113.336 558.243Z" fill="white"/>
<path d="M176.241 721.885L176.299 641.145C176.299 640.795 175.948 640.444 175.598 640.444C175.247 640.444 174.896 640.795 174.896 641.145L174.896 721.944C174.896 722.295 175.247 722.645 175.598 722.645C175.89 722.587 176.241 722.236 176.241 721.885Z" fill="url(#paint105_linear_572_16639)"/>
<path d="M176.241 721.885L176.299 641.145C176.299 640.795 175.948 640.444 175.598 640.444C175.247 640.444 174.896 640.795 174.896 641.145L174.896 721.944C174.896 722.295 175.247 722.645 175.598 722.645C175.89 722.587 176.241 722.236 176.241 721.885Z" fill="url(#paint106_radial_572_16639)"/>
<path d="M49.3132 607.003V563.505C49.3132 563.271 49.1378 563.095 48.9624 563.154C48.7286 563.154 48.5532 563.329 48.6116 563.505V607.003C48.6116 607.236 48.787 607.412 48.9624 607.353C49.1378 607.295 49.2547 607.178 49.3132 607.003Z" fill="url(#paint107_linear_572_16639)"/>
<path d="M49.3132 607.003V563.505C49.3132 563.271 49.1378 563.095 48.9624 563.154C48.7286 563.154 48.5532 563.329 48.6116 563.505V607.003C48.6116 607.236 48.787 607.412 48.9624 607.353C49.1378 607.295 49.2547 607.178 49.3132 607.003Z" fill="url(#paint108_radial_572_16639)"/>
<path d="M180.51 191.083V147.585C180.51 147.351 180.334 147.176 180.159 147.234C179.925 147.234 179.749 147.41 179.808 147.585L179.808 191.083C179.808 191.317 179.983 191.492 180.159 191.434C180.334 191.492 180.51 191.317 180.51 191.083Z" fill="url(#paint109_linear_572_16639)"/>
<path d="M180.508 191.083V147.585C180.508 147.351 180.333 147.176 180.158 147.235C179.924 147.235 179.748 147.41 179.807 147.585V191.083C179.807 191.317 179.982 191.492 180.158 191.434C180.333 191.492 180.508 191.317 180.508 191.083Z" fill="url(#paint110_radial_572_16639)"/>
<path d="M275.513 603.67V560.172C275.513 559.939 275.337 559.763 275.162 559.822C274.928 559.822 274.753 559.997 274.811 560.172V603.67C274.811 603.904 274.986 604.08 275.162 604.021C275.337 604.08 275.513 603.904 275.513 603.67Z" fill="url(#paint111_linear_572_16639)"/>
<path d="M275.514 603.67V560.172C275.514 559.938 275.338 559.763 275.163 559.821C274.929 559.821 274.754 559.997 274.812 560.172V603.67C274.812 603.904 274.987 604.079 275.163 604.021C275.338 604.079 275.514 603.904 275.514 603.67Z" fill="url(#paint112_radial_572_16639)"/>
<path d="M142.681 448.621L142.681 405.123C142.681 404.889 142.505 404.714 142.33 404.772C142.096 404.772 141.921 404.948 141.979 405.123V448.621C141.979 448.855 142.155 449.03 142.33 448.972C142.564 448.972 142.681 448.855 142.681 448.621Z" fill="url(#paint113_linear_572_16639)"/>
<path d="M142.681 448.621L142.681 405.123C142.681 404.889 142.505 404.714 142.33 404.772C142.096 404.772 141.921 404.948 141.979 405.123V448.621C141.979 448.855 142.155 449.03 142.33 448.972C142.564 448.972 142.681 448.855 142.681 448.621Z" fill="url(#paint114_radial_572_16639)"/>
<path d="M329.769 332.509V289.011C329.769 288.777 329.594 288.602 329.419 288.66C329.185 288.66 329.009 288.835 329.068 289.011V332.509C329.068 332.743 329.243 332.918 329.419 332.859C329.594 332.918 329.769 332.743 329.769 332.509Z" fill="url(#paint115_linear_572_16639)"/>
<path d="M329.769 332.51V289.012C329.769 288.779 329.593 288.603 329.418 288.662C329.184 288.662 329.009 288.837 329.067 289.012V332.51C329.067 332.744 329.243 332.919 329.418 332.861C329.593 332.919 329.769 332.744 329.769 332.51Z" fill="url(#paint116_radial_572_16639)"/>
<path d="M-246.285 674.589L-246.285 631.091C-246.285 630.857 -246.461 630.682 -246.636 630.74C-246.87 630.74 -247.045 630.916 -246.987 631.091L-246.987 674.589C-246.987 674.823 -246.811 674.998 -246.636 674.94C-246.461 674.998 -246.285 674.823 -246.285 674.589Z" fill="url(#paint117_linear_572_16639)"/>
<path d="M-246.285 674.589L-246.285 631.091C-246.285 630.857 -246.461 630.682 -246.636 630.74C-246.87 630.74 -247.045 630.916 -246.987 631.091L-246.987 674.589C-246.987 674.823 -246.811 674.998 -246.636 674.94C-246.461 674.998 -246.285 674.823 -246.285 674.589Z" fill="url(#paint118_radial_572_16639)"/>
<path d="M-9.38586 714.227V670.729C-9.38586 670.495 -9.56127 670.32 -9.73666 670.378C-9.97052 670.378 -10.1459 670.554 -10.0875 670.729V714.227C-10.0875 714.461 -9.91209 714.636 -9.73669 714.578C-9.5613 714.636 -9.38586 714.461 -9.38586 714.227Z" fill="url(#paint119_linear_572_16639)"/>
<path d="M-9.38586 714.227V670.729C-9.38586 670.495 -9.56127 670.32 -9.73666 670.378C-9.97052 670.378 -10.1459 670.554 -10.0875 670.729V714.227C-10.0875 714.461 -9.91209 714.636 -9.73669 714.578C-9.5613 714.636 -9.38586 714.461 -9.38586 714.227Z" fill="url(#paint120_radial_572_16639)"/>
<path d="M107.25 725.861V682.363C107.25 682.129 107.075 681.954 106.9 682.012C106.666 682.012 106.49 682.188 106.549 682.363L106.549 725.861C106.549 726.095 106.724 726.27 106.9 726.212C107.075 726.27 107.25 726.095 107.25 725.861Z" fill="url(#paint121_linear_572_16639)"/>
<path d="M107.252 725.861V682.364C107.252 682.13 107.077 681.954 106.901 682.013C106.667 682.013 106.492 682.188 106.55 682.364L106.55 725.861C106.55 726.095 106.726 726.271 106.901 726.212C107.077 726.271 107.252 726.095 107.252 725.861Z" fill="url(#paint122_radial_572_16639)"/>
<path d="M109.474 334.265L109.474 290.767C109.474 290.533 109.298 290.357 109.123 290.416C108.889 290.416 108.714 290.591 108.772 290.767L108.772 334.265C108.772 334.498 108.947 334.674 109.123 334.615C109.298 334.557 109.532 334.44 109.474 334.265Z" fill="url(#paint123_linear_572_16639)"/>
<path d="M109.474 334.265L109.474 290.767C109.474 290.533 109.298 290.357 109.123 290.416C108.889 290.416 108.714 290.591 108.772 290.767L108.772 334.265C108.772 334.498 108.947 334.674 109.123 334.615C109.298 334.557 109.532 334.44 109.474 334.265Z" fill="url(#paint124_radial_572_16639)"/>
<path d="M-37.3906 569.527V499.135C-37.3906 498.784 -37.6829 498.492 -37.9752 498.55C-38.326 498.55 -38.6183 498.843 -38.5599 499.135V569.527C-38.5599 569.877 -38.2675 570.17 -37.9752 570.111C-37.6829 570.17 -37.3906 569.877 -37.3906 569.527Z" fill="url(#paint125_linear_572_16639)"/>
<path d="M-37.3906 569.527V499.135C-37.3906 498.784 -37.6829 498.492 -37.9752 498.55C-38.326 498.55 -38.6183 498.843 -38.5599 499.135V569.527C-38.5599 569.877 -38.2675 570.17 -37.9752 570.111C-37.6829 570.17 -37.3906 569.877 -37.3906 569.527Z" fill="url(#paint126_radial_572_16639)"/>
<path d="M194.131 444.995L194.073 305.206C194.073 304.504 193.546 303.978 192.845 303.978C192.143 303.978 191.617 304.504 191.617 305.206V444.937C191.617 445.638 192.143 446.164 192.845 446.164C193.546 446.164 194.073 445.638 194.131 444.995Z" fill="url(#paint127_linear_572_16639)"/>
<path d="M194.131 444.997L194.072 305.207C194.072 304.506 193.546 303.98 192.844 303.98C192.143 303.98 191.617 304.506 191.617 305.207V444.938C191.617 445.64 192.143 446.166 192.844 446.166C193.546 446.166 194.072 445.64 194.131 444.997Z" fill="url(#paint128_radial_572_16639)"/>
<path d="M-262.188 658.102L-262.188 518.371C-262.188 517.669 -262.714 517.143 -263.416 517.143C-264.117 517.143 -264.644 517.669 -264.644 518.371L-264.644 658.102C-264.644 658.804 -264.117 659.33 -263.416 659.33C-262.714 659.33 -262.188 658.804 -262.188 658.102Z" fill="url(#paint129_linear_572_16639)"/>
<path d="M-262.187 658.101L-262.187 518.37C-262.187 517.668 -262.714 517.142 -263.415 517.142C-264.117 517.142 -264.643 517.668 -264.643 518.37L-264.643 658.101C-264.643 658.803 -264.117 659.329 -263.415 659.329C-262.714 659.329 -262.187 658.803 -262.187 658.101Z" fill="url(#paint130_radial_572_16639)"/>
<path d="M119.412 656.873L119.354 517.084C119.354 516.382 118.711 515.856 118.009 515.856C117.308 515.856 116.664 516.382 116.664 517.084L116.664 656.815C116.664 657.516 117.308 658.042 118.009 658.042C118.769 658.101 119.354 657.516 119.412 656.873Z" fill="url(#paint131_linear_572_16639)"/>
<path d="M119.412 656.873L119.354 517.084C119.354 516.382 118.711 515.856 118.009 515.856C117.308 515.856 116.664 516.382 116.664 517.084L116.664 656.815C116.664 657.516 117.308 658.042 118.009 658.042C118.769 658.101 119.354 657.516 119.412 656.873Z" fill="url(#paint132_radial_572_16639)"/>
<path d="M-111.874 762.226L-111.816 622.437C-111.816 621.735 -112.459 621.209 -113.16 621.209C-113.862 621.209 -114.505 621.735 -114.505 622.437L-114.505 762.167C-114.505 762.869 -113.862 763.395 -113.16 763.395C-112.459 763.395 -111.816 762.869 -111.874 762.226Z" fill="url(#paint133_linear_572_16639)"/>
<path d="M-111.874 762.226L-111.816 622.437C-111.816 621.735 -112.459 621.209 -113.16 621.209C-113.862 621.209 -114.505 621.735 -114.505 622.437L-114.505 762.167C-114.505 762.869 -113.862 763.395 -113.16 763.395C-112.459 763.395 -111.816 762.869 -111.874 762.226Z" fill="url(#paint134_radial_572_16639)"/>
<path d="M271.013 184.069V44.3378C271.013 43.6362 270.487 43.11 269.785 43.11C269.084 43.11 268.558 43.6362 268.558 44.3378V184.069C268.558 184.77 269.084 185.296 269.785 185.296C270.487 185.296 271.013 184.77 271.013 184.069Z" fill="url(#paint135_linear_572_16639)"/>
<path d="M271.012 184.068V44.3371C271.012 43.6356 270.486 43.1094 269.784 43.1094C269.083 43.1094 268.556 43.6356 268.556 44.3371V184.068C268.556 184.77 269.083 185.296 269.784 185.296C270.486 185.296 271.012 184.77 271.012 184.068Z" fill="url(#paint136_radial_572_16639)"/>
<path d="M508.788 377.88V281.997C508.788 281.53 508.437 281.179 507.97 281.179C507.502 281.179 507.151 281.53 507.151 281.997V377.88C507.151 378.348 507.502 378.698 507.97 378.698C508.379 378.757 508.788 378.348 508.788 377.88Z" fill="url(#paint137_linear_572_16639)"/>
<path d="M508.788 377.88V281.997C508.788 281.53 508.437 281.179 507.97 281.179C507.502 281.179 507.151 281.53 507.151 281.997V377.88C507.151 378.348 507.502 378.698 507.97 378.698C508.379 378.757 508.788 378.348 508.788 377.88Z" fill="url(#paint138_radial_572_16639)"/>
<path d="M59.778 385.246L59.778 242.709C59.778 242.007 59.2518 241.481 58.5503 241.481C57.8487 241.481 57.3225 242.007 57.3225 242.709V385.129C57.3225 385.831 57.8487 386.357 58.5503 386.357C59.1934 386.415 59.778 385.83 59.778 385.246Z" fill="url(#paint139_linear_572_16639)"/>
<path d="M59.778 385.246L59.778 242.709C59.778 242.007 59.2518 241.481 58.5503 241.481C57.8487 241.481 57.3225 242.007 57.3225 242.709V385.129C57.3225 385.831 57.8487 386.357 58.5503 386.357C59.1934 386.415 59.778 385.83 59.778 385.246Z" fill="url(#paint140_radial_572_16639)"/>
<path d="M246.866 392.26V315.438C246.866 315.087 246.574 314.795 246.223 314.795C245.872 314.795 245.58 315.087 245.58 315.438V392.26C245.58 392.611 245.872 392.904 246.223 392.904C246.574 392.904 246.866 392.611 246.866 392.26Z" fill="url(#paint141_linear_572_16639)"/>
<path d="M246.866 392.261V315.439C246.866 315.088 246.573 314.796 246.223 314.796C245.872 314.796 245.579 315.088 245.579 315.439V392.261C245.579 392.612 245.872 392.905 246.223 392.905C246.573 392.905 246.866 392.612 246.866 392.261Z" fill="url(#paint142_radial_572_16639)"/>
<path d="M41.4212 426.756V363.731C41.4212 363.381 41.1873 363.147 40.895 363.205C40.5442 363.205 40.3103 363.439 40.3688 363.731V426.756C40.3688 427.107 40.6027 427.341 40.895 427.283C41.2458 427.283 41.4796 427.049 41.4212 426.756Z" fill="url(#paint143_linear_572_16639)"/>
<path d="M41.4201 426.755V363.73C41.4201 363.379 41.1862 363.146 40.8939 363.204C40.5431 363.204 40.3093 363.438 40.3677 363.73V426.755C40.3677 427.106 40.6016 427.34 40.8939 427.281C41.2447 427.281 41.4786 427.048 41.4201 426.755Z" fill="url(#paint144_radial_572_16639)"/>
<path d="M-34.8176 951.068L-34.8176 888.043C-34.8176 887.692 -35.0514 887.459 -35.3438 887.517C-35.6946 887.517 -35.9284 887.751 -35.8699 888.043L-35.8699 951.068C-35.87 951.419 -35.6361 951.653 -35.3438 951.594C-35.0514 951.653 -34.8176 951.419 -34.8176 951.068Z" fill="url(#paint145_linear_572_16639)"/>
<path d="M-34.8176 951.068L-34.8176 888.043C-34.8176 887.692 -35.0514 887.459 -35.3438 887.517C-35.6946 887.517 -35.9284 887.751 -35.8699 888.043L-35.8699 951.068C-35.87 951.419 -35.6361 951.653 -35.3438 951.594C-35.0514 951.653 -34.8176 951.419 -34.8176 951.068Z" fill="url(#paint146_radial_572_16639)"/>
<path d="M375.84 350.868L375.898 192.136C375.898 191.317 375.314 190.732 374.495 190.732C373.677 190.732 373.092 191.317 373.092 192.136V350.809C373.092 351.628 373.677 352.212 374.495 352.212C375.197 352.212 375.84 351.569 375.84 350.868Z" fill="url(#paint147_linear_572_16639)"/>
<path d="M375.84 350.868L375.898 192.136C375.898 191.317 375.314 190.732 374.495 190.732C373.677 190.732 373.092 191.317 373.092 192.136V350.809C373.092 351.628 373.677 352.212 374.495 352.212C375.197 352.212 375.84 351.569 375.84 350.868Z" fill="url(#paint148_radial_572_16639)"/>
<path d="M68.7238 888.452V807.653C68.7238 807.302 68.373 806.952 68.0222 806.952C67.6714 806.952 67.3206 807.302 67.3206 807.653L67.3206 888.452C67.3206 888.802 67.6714 889.153 68.0222 889.153C68.373 889.153 68.7238 888.802 68.7238 888.452Z" fill="url(#paint149_linear_572_16639)"/>
<path d="M68.7234 888.453V807.654C68.7234 807.304 68.3726 806.953 68.0219 806.953C67.6711 806.953 67.3203 807.303 67.3203 807.654L67.3203 888.453C67.3203 888.803 67.6711 889.154 68.0219 889.154C68.3726 889.154 68.7234 888.803 68.7234 888.453Z" fill="url(#paint150_radial_572_16639)"/>
<path d="M-66.0372 844.311L-66.0372 800.813C-66.0372 800.579 -66.2126 800.404 -66.388 800.462C-66.6218 800.462 -66.7972 800.638 -66.7388 800.813L-66.7387 844.311C-66.7387 844.545 -66.5634 844.72 -66.388 844.662C-66.2126 844.72 -66.0372 844.545 -66.0372 844.311Z" fill="url(#paint151_linear_572_16639)"/>
<path d="M-66.0372 844.311L-66.0372 800.813C-66.0372 800.579 -66.2126 800.404 -66.388 800.462C-66.6218 800.462 -66.7972 800.638 -66.7388 800.813L-66.7387 844.311C-66.7387 844.545 -66.5634 844.72 -66.388 844.662C-66.2126 844.72 -66.0372 844.545 -66.0372 844.311Z" fill="white"/>
<path d="M34.7552 827.941V688.21C34.7552 687.508 34.229 686.982 33.5274 686.982C32.8259 686.982 32.2997 687.508 32.2997 688.21L32.3581 827.999C32.3581 828.701 32.8843 829.227 33.5859 829.227C34.229 829.169 34.7552 828.642 34.7552 827.941Z" fill="url(#paint152_linear_572_16639)"/>
<path d="M34.7552 827.941V688.21C34.7552 687.508 34.229 686.982 33.5274 686.982C32.8259 686.982 32.2997 687.508 32.2997 688.21L32.3581 827.999C32.3581 828.701 32.8843 829.227 33.5859 829.227C34.229 829.169 34.7552 828.642 34.7552 827.941Z" fill="white"/>
<path d="M353.916 642.901V484.227C353.916 483.409 353.331 482.824 352.512 482.824C351.694 482.824 351.109 483.409 351.109 484.227L351.168 642.959C351.168 643.778 351.752 644.362 352.571 644.362C353.331 644.304 353.916 643.719 353.916 642.901Z" fill="url(#paint153_linear_572_16639)"/>
<path d="M353.915 642.899V484.226C353.915 483.407 353.331 482.823 352.512 482.823C351.694 482.823 351.109 483.407 351.109 484.226L351.167 642.958C351.167 643.776 351.752 644.361 352.571 644.361C353.331 644.302 353.915 643.718 353.915 642.899Z" fill="url(#paint154_radial_572_16639)"/>
<path d="M446.756 493.698L446.698 353.909C446.698 353.207 446.171 352.681 445.47 352.681C444.768 352.681 444.242 353.207 444.242 353.909V493.64C444.242 494.341 444.768 494.867 445.47 494.867C446.172 494.867 446.698 494.341 446.756 493.698Z" fill="url(#paint155_linear_572_16639)"/>
<path d="M446.757 493.698L446.699 353.909C446.699 353.207 446.173 352.681 445.471 352.681C444.77 352.681 444.243 353.207 444.243 353.909V493.639C444.243 494.341 444.77 494.867 445.471 494.867C446.173 494.867 446.699 494.341 446.757 493.698Z" fill="white"/>
<defs>
<radialGradient id="paint0_radial_572_16639" cx="0" cy="0" r="1" gradientUnits="userSpaceOnUse" gradientTransform="translate(862.161 415.668) rotate(152.915) scale(3272.42 4522.18)">
<stop stop-color="white"/>
<stop offset="0.972689" stop-color="white" stop-opacity="0"/>
</radialGradient>
<radialGradient id="paint1_radial_572_16639" cx="0" cy="0" r="1" gradientUnits="userSpaceOnUse" gradientTransform="translate(862.161 415.668) rotate(152.915) scale(3272.42 4522.18)">
<stop stop-color="white"/>
<stop offset="0.972689" stop-color="white" stop-opacity="0"/>
</radialGradient>
<radialGradient id="paint2_radial_572_16639" cx="0" cy="0" r="1" gradientUnits="userSpaceOnUse" gradientTransform="translate(862.161 415.668) rotate(152.915) scale(3272.42 4522.18)">
<stop stop-color="white"/>
<stop offset="0.972689" stop-color="white" stop-opacity="0"/>
</radialGradient>
<radialGradient id="paint3_radial_572_16639" cx="0" cy="0" r="1" gradientUnits="userSpaceOnUse" gradientTransform="translate(862.161 415.668) rotate(152.915) scale(3272.42 4522.18)">
<stop stop-color="white"/>
<stop offset="0.972689" stop-color="white" stop-opacity="0"/>
</radialGradient>
<radialGradient id="paint4_radial_572_16639" cx="0" cy="0" r="1" gradientUnits="userSpaceOnUse" gradientTransform="translate(862.161 415.668) rotate(152.915) scale(3272.42 4522.18)">
<stop stop-color="white"/>
<stop offset="0.972689" stop-color="white" stop-opacity="0"/>
</radialGradient>
<radialGradient id="paint5_radial_572_16639" cx="0" cy="0" r="1" gradientUnits="userSpaceOnUse" gradientTransform="translate(862.161 415.668) rotate(152.915) scale(3272.42 4522.18)">
<stop stop-color="white"/>
<stop offset="0.972689" stop-color="white" stop-opacity="0"/>
</radialGradient>
<radialGradient id="paint6_radial_572_16639" cx="0" cy="0" r="1" gradientUnits="userSpaceOnUse" gradientTransform="translate(862.161 415.668) rotate(152.915) scale(3272.42 4522.18)">
<stop stop-color="white"/>
<stop offset="0.972689" stop-color="white" stop-opacity="0"/>
</radialGradient>
<radialGradient id="paint7_radial_572_16639" cx="0" cy="0" r="1" gradientUnits="userSpaceOnUse" gradientTransform="translate(862.161 415.668) rotate(152.915) scale(3272.42 4522.18)">
<stop stop-color="white"/>
<stop offset="0.972689" stop-color="white" stop-opacity="0"/>
</radialGradient>
<radialGradient id="paint8_radial_572_16639" cx="0" cy="0" r="1" gradientUnits="userSpaceOnUse" gradientTransform="translate(862.161 415.668) rotate(152.915) scale(3272.42 4522.18)">
<stop stop-color="white"/>
<stop offset="0.972689" stop-color="white" stop-opacity="0"/>
</radialGradient>
<radialGradient id="paint9_radial_572_16639" cx="0" cy="0" r="1" gradientUnits="userSpaceOnUse" gradientTransform="translate(862.161 415.668) rotate(152.915) scale(3272.42 4522.18)">
<stop stop-color="white"/>
<stop offset="0.972689" stop-color="white" stop-opacity="0"/>
</radialGradient>
<radialGradient id="paint10_radial_572_16639" cx="0" cy="0" r="1" gradientUnits="userSpaceOnUse" gradientTransform="translate(862.161 415.668) rotate(152.915) scale(3272.42 4522.18)">
<stop stop-color="white"/>
<stop offset="0.972689" stop-color="white" stop-opacity="0"/>
</radialGradient>
<radialGradient id="paint11_radial_572_16639" cx="0" cy="0" r="1" gradientUnits="userSpaceOnUse" gradientTransform="translate(862.161 415.668) rotate(152.915) scale(3272.42 4522.18)">
<stop stop-color="white"/>
<stop offset="0.972689" stop-color="white" stop-opacity="0"/>
</radialGradient>
<radialGradient id="paint12_radial_572_16639" cx="0" cy="0" r="1" gradientUnits="userSpaceOnUse" gradientTransform="translate(862.161 415.668) rotate(152.915) scale(3272.42 4522.18)">
<stop stop-color="white"/>
<stop offset="0.972689" stop-color="white" stop-opacity="0"/>
</radialGradient>
<radialGradient id="paint13_radial_572_16639" cx="0" cy="0" r="1" gradientUnits="userSpaceOnUse" gradientTransform="translate(862.161 415.668) rotate(152.915) scale(3272.42 4522.18)">
<stop stop-color="white"/>
<stop offset="0.972689" stop-color="white" stop-opacity="0"/>
</radialGradient>
<radialGradient id="paint14_radial_572_16639" cx="0" cy="0" r="1" gradientUnits="userSpaceOnUse" gradientTransform="translate(862.161 415.668) rotate(152.915) scale(3272.42 4522.18)">
<stop stop-color="white"/>
<stop offset="0.972689" stop-color="white" stop-opacity="0"/>
</radialGradient>
<radialGradient id="paint15_radial_572_16639" cx="0" cy="0" r="1" gradientUnits="userSpaceOnUse" gradientTransform="translate(862.161 415.668) rotate(152.915) scale(3272.42 4522.18)">
<stop stop-color="white"/>
<stop offset="0.972689" stop-color="white" stop-opacity="0"/>
</radialGradient>
<radialGradient id="paint16_radial_572_16639" cx="0" cy="0" r="1" gradientUnits="userSpaceOnUse" gradientTransform="translate(862.161 415.668) rotate(152.915) scale(3272.42 4522.18)">
<stop stop-color="white"/>
<stop offset="0.972689" stop-color="white" stop-opacity="0"/>
</radialGradient>
<radialGradient id="paint17_radial_572_16639" cx="0" cy="0" r="1" gradientUnits="userSpaceOnUse" gradientTransform="translate(862.161 415.668) rotate(152.915) scale(3272.42 4522.18)">
<stop stop-color="white"/>
<stop offset="0.972689" stop-color="white" stop-opacity="0"/>
</radialGradient>
<radialGradient id="paint18_radial_572_16639" cx="0" cy="0" r="1" gradientUnits="userSpaceOnUse" gradientTransform="translate(862.161 415.668) rotate(152.915) scale(3272.42 4522.18)">
<stop stop-color="white"/>
<stop offset="0.972689" stop-color="white" stop-opacity="0"/>
</radialGradient>
<radialGradient id="paint19_radial_572_16639" cx="0" cy="0" r="1" gradientUnits="userSpaceOnUse" gradientTransform="translate(862.161 415.668) rotate(152.915) scale(3272.42 4522.18)">
<stop stop-color="white"/>
<stop offset="0.972689" stop-color="white" stop-opacity="0"/>
</radialGradient>
<radialGradient id="paint20_radial_572_16639" cx="0" cy="0" r="1" gradientUnits="userSpaceOnUse" gradientTransform="translate(862.161 415.668) rotate(152.915) scale(3272.42 4522.18)">
<stop stop-color="white"/>
<stop offset="0.972689" stop-color="white" stop-opacity="0"/>
</radialGradient>
<radialGradient id="paint21_radial_572_16639" cx="0" cy="0" r="1" gradientUnits="userSpaceOnUse" gradientTransform="translate(862.161 415.668) rotate(152.915) scale(3272.42 4522.18)">
<stop stop-color="white"/>
<stop offset="0.972689" stop-color="white" stop-opacity="0"/>
</radialGradient>
<linearGradient id="paint22_linear_572_16639" x1="-280.72" y1="3.90058" x2="385.091" y2="1617.03" gradientUnits="userSpaceOnUse">
<stop/>
<stop offset="1" stop-color="white"/>
</linearGradient>
<radialGradient id="paint23_radial_572_16639" cx="0" cy="0" r="1" gradientUnits="userSpaceOnUse" gradientTransform="translate(862.161 415.668) rotate(152.915) scale(3272.42 4522.18)">
<stop stop-color="white"/>
<stop offset="0.972689" stop-color="white" stop-opacity="0"/>
</radialGradient>
<linearGradient id="paint24_linear_572_16639" x1="-281.404" y1="3.46884" x2="385.612" y2="1617.8" gradientUnits="userSpaceOnUse">
<stop/>
<stop offset="1" stop-color="white"/>
</linearGradient>
<linearGradient id="paint25_linear_572_16639" x1="-279.838" y1="3.5267" x2="387.178" y2="1617.86" gradientUnits="userSpaceOnUse">
<stop/>
<stop offset="1" stop-color="white"/>
</linearGradient>
<linearGradient id="paint26_linear_572_16639" x1="-279.558" y1="3.72438" x2="387.458" y2="1618.06" gradientUnits="userSpaceOnUse">
<stop/>
<stop offset="1" stop-color="white"/>
</linearGradient>
<linearGradient id="paint27_linear_572_16639" x1="-280.977" y1="2.50749" x2="387.421" y2="1618.23" gradientUnits="userSpaceOnUse">
<stop/>
<stop offset="1" stop-color="white"/>
</linearGradient>
<radialGradient id="paint28_radial_572_16639" cx="0" cy="0" r="1" gradientUnits="userSpaceOnUse" gradientTransform="translate(862.161 415.668) rotate(152.915) scale(3272.42 4522.18)">
<stop stop-color="white"/>
<stop offset="0.972689" stop-color="white" stop-opacity="0"/>
</radialGradient>
<linearGradient id="paint29_linear_572_16639" x1="-280.034" y1="2.34143" x2="388.994" y2="1618.36" gradientUnits="userSpaceOnUse">
<stop/>
<stop offset="1" stop-color="white"/>
</linearGradient>
<radialGradient id="paint30_radial_572_16639" cx="0" cy="0" r="1" gradientUnits="userSpaceOnUse" gradientTransform="translate(862.161 415.668) rotate(152.915) scale(3272.42 4522.18)">
<stop stop-color="white"/>
<stop offset="0.972689" stop-color="white" stop-opacity="0"/>
</radialGradient>
<linearGradient id="paint31_linear_572_16639" x1="-278.469" y1="3.9503" x2="388.31" y2="1617.71" gradientUnits="userSpaceOnUse">
<stop/>
<stop offset="1" stop-color="white"/>
</linearGradient>
<radialGradient id="paint32_radial_572_16639" cx="0" cy="0" r="1" gradientUnits="userSpaceOnUse" gradientTransform="translate(862.161 415.668) rotate(152.915) scale(3272.42 4522.18)">
<stop stop-color="white"/>
<stop offset="0.972689" stop-color="white" stop-opacity="0"/>
</radialGradient>
<linearGradient id="paint33_linear_572_16639" x1="-277.786" y1="3.17612" x2="388.992" y2="1616.94" gradientUnits="userSpaceOnUse">
<stop/>
<stop offset="1" stop-color="white"/>
</linearGradient>
<radialGradient id="paint34_radial_572_16639" cx="0" cy="0" r="1" gradientUnits="userSpaceOnUse" gradientTransform="translate(862.161 415.668) rotate(152.915) scale(3272.42 4522.18)">
<stop stop-color="white"/>
<stop offset="0.972689" stop-color="white" stop-opacity="0"/>
</radialGradient>
<linearGradient id="paint35_linear_572_16639" x1="-280.59" y1="3.53824" x2="386.187" y2="1617.3" gradientUnits="userSpaceOnUse">
<stop/>
<stop offset="1" stop-color="white"/>
</linearGradient>
<radialGradient id="paint36_radial_572_16639" cx="0" cy="0" r="1" gradientUnits="userSpaceOnUse" gradientTransform="translate(862.161 415.668) rotate(152.915) scale(3272.42 4522.18)">
<stop stop-color="white"/>
<stop offset="0.972689" stop-color="white" stop-opacity="0"/>
</radialGradient>
<linearGradient id="paint37_linear_572_16639" x1="-277.774" y1="3.31097" x2="389.004" y2="1617.07" gradientUnits="userSpaceOnUse">
<stop/>
<stop offset="1" stop-color="white"/>
</linearGradient>
<radialGradient id="paint38_radial_572_16639" cx="0" cy="0" r="1" gradientUnits="userSpaceOnUse" gradientTransform="translate(862.161 415.668) rotate(152.915) scale(3272.42 4522.18)">
<stop stop-color="white"/>
<stop offset="0.972689" stop-color="white" stop-opacity="0"/>
</radialGradient>
<linearGradient id="paint39_linear_572_16639" x1="-277.635" y1="4.43977" x2="389.143" y2="1618.2" gradientUnits="userSpaceOnUse">
<stop/>
<stop offset="1" stop-color="white"/>
</linearGradient>
<radialGradient id="paint40_radial_572_16639" cx="0" cy="0" r="1" gradientUnits="userSpaceOnUse" gradientTransform="translate(862.161 415.668) rotate(152.915) scale(3272.42 4522.18)">
<stop stop-color="white"/>
<stop offset="0.972689" stop-color="white" stop-opacity="0"/>
</radialGradient>
<linearGradient id="paint41_linear_572_16639" x1="-277.079" y1="3.12868" x2="389.7" y2="1616.89" gradientUnits="userSpaceOnUse">
<stop/>
<stop offset="1" stop-color="white"/>
</linearGradient>
<radialGradient id="paint42_radial_572_16639" cx="0" cy="0" r="1" gradientUnits="userSpaceOnUse" gradientTransform="translate(862.161 415.668) rotate(152.915) scale(3272.42 4522.18)">
<stop stop-color="white"/>
<stop offset="0.972689" stop-color="white" stop-opacity="0"/>
</radialGradient>
<linearGradient id="paint43_linear_572_16639" x1="-277.574" y1="4.24501" x2="389.203" y2="1618.01" gradientUnits="userSpaceOnUse">
<stop/>
<stop offset="1" stop-color="white"/>
</linearGradient>
<radialGradient id="paint44_radial_572_16639" cx="0" cy="0" r="1" gradientUnits="userSpaceOnUse" gradientTransform="translate(862.161 415.668) rotate(152.915) scale(3272.42 4522.18)">
<stop stop-color="white"/>
<stop offset="0.972689" stop-color="white" stop-opacity="0"/>
</radialGradient>
<linearGradient id="paint45_linear_572_16639" x1="-281.576" y1="3.66634" x2="386.24" y2="1618.47" gradientUnits="userSpaceOnUse">
<stop/>
<stop offset="1" stop-color="white"/>
</linearGradient>
<radialGradient id="paint46_radial_572_16639" cx="0" cy="0" r="1" gradientUnits="userSpaceOnUse" gradientTransform="translate(862.161 415.668) rotate(152.915) scale(3272.42 4522.18)">
<stop stop-color="white"/>
<stop offset="0.972689" stop-color="white" stop-opacity="0"/>
</radialGradient>
<linearGradient id="paint47_linear_572_16639" x1="-279.665" y1="3.5372" x2="387.289" y2="1617.72" gradientUnits="userSpaceOnUse">
<stop/>
<stop offset="1" stop-color="white"/>
</linearGradient>
<radialGradient id="paint48_radial_572_16639" cx="0" cy="0" r="1" gradientUnits="userSpaceOnUse" gradientTransform="translate(862.161 415.668) rotate(152.915) scale(3272.42 4522.18)">
<stop stop-color="white"/>
<stop offset="0.972689" stop-color="white" stop-opacity="0"/>
</radialGradient>
<linearGradient id="paint49_linear_572_16639" x1="-281.248" y1="3.89939" x2="385.389" y2="1617.49" gradientUnits="userSpaceOnUse">
<stop/>
<stop offset="1" stop-color="white"/>
</linearGradient>
<radialGradient id="paint50_radial_572_16639" cx="0" cy="0" r="1" gradientUnits="userSpaceOnUse" gradientTransform="translate(862.161 415.668) rotate(152.915) scale(3272.42 4522.18)">
<stop stop-color="white"/>
<stop offset="0.972689" stop-color="white" stop-opacity="0"/>
</radialGradient>
<linearGradient id="paint51_linear_572_16639" x1="-280.688" y1="3.55341" x2="386.073" y2="1617.27" gradientUnits="userSpaceOnUse">
<stop/>
<stop offset="1" stop-color="white"/>
</linearGradient>
<radialGradient id="paint52_radial_572_16639" cx="0" cy="0" r="1" gradientUnits="userSpaceOnUse" gradientTransform="translate(862.161 415.668) rotate(152.915) scale(3272.42 4522.18)">
<stop stop-color="white"/>
<stop offset="0.972689" stop-color="white" stop-opacity="0"/>
</radialGradient>
<linearGradient id="paint53_linear_572_16639" x1="-279.126" y1="4.19294" x2="386.593" y2="1616.05" gradientUnits="userSpaceOnUse">
<stop/>
<stop offset="1" stop-color="white"/>
</linearGradient>
<radialGradient id="paint54_radial_572_16639" cx="0" cy="0" r="1" gradientUnits="userSpaceOnUse" gradientTransform="translate(862.161 415.668) rotate(152.915) scale(3272.42 4522.18)">
<stop stop-color="white"/>
<stop offset="0.972689" stop-color="white" stop-opacity="0"/>
</radialGradient>
<linearGradient id="paint55_linear_572_16639" x1="-278.542" y1="3.72667" x2="387.641" y2="1616.05" gradientUnits="userSpaceOnUse">
<stop/>
<stop offset="1" stop-color="white"/>
</linearGradient>
<radialGradient id="paint56_radial_572_16639" cx="0" cy="0" r="1" gradientUnits="userSpaceOnUse" gradientTransform="translate(862.161 415.668) rotate(152.915) scale(3272.42 4522.18)">
<stop stop-color="white"/>
<stop offset="0.972689" stop-color="white" stop-opacity="0"/>
</radialGradient>
<linearGradient id="paint57_linear_572_16639" x1="-280.99" y1="3.47262" x2="385.771" y2="1617.19" gradientUnits="userSpaceOnUse">
<stop/>
<stop offset="1" stop-color="white"/>
</linearGradient>
<radialGradient id="paint58_radial_572_16639" cx="0" cy="0" r="1" gradientUnits="userSpaceOnUse" gradientTransform="translate(862.161 415.668) rotate(152.915) scale(3272.42 4522.18)">
<stop stop-color="white"/>
<stop offset="0.972689" stop-color="white" stop-opacity="0"/>
</radialGradient>
<linearGradient id="paint59_linear_572_16639" x1="-279.844" y1="3.24592" x2="387.231" y2="1617.72" gradientUnits="userSpaceOnUse">
<stop/>
<stop offset="1" stop-color="white"/>
</linearGradient>
<radialGradient id="paint60_radial_572_16639" cx="0" cy="0" r="1" gradientUnits="userSpaceOnUse" gradientTransform="translate(862.161 415.668) rotate(152.915) scale(3272.42 4522.18)">
<stop stop-color="white"/>
<stop offset="0.972689" stop-color="white" stop-opacity="0"/>
</radialGradient>
<linearGradient id="paint61_linear_572_16639" x1="-280.067" y1="3.74799" x2="386.74" y2="1617.75" gradientUnits="userSpaceOnUse">
<stop/>
<stop offset="1" stop-color="white"/>
</linearGradient>
<radialGradient id="paint62_radial_572_16639" cx="0" cy="0" r="1" gradientUnits="userSpaceOnUse" gradientTransform="translate(862.161 415.668) rotate(152.915) scale(3272.42 4522.18)">
<stop stop-color="white"/>
<stop offset="0.972689" stop-color="white" stop-opacity="0"/>
</radialGradient>
<linearGradient id="paint63_linear_572_16639" x1="-280.906" y1="2.33776" x2="386.485" y2="1617.58" gradientUnits="userSpaceOnUse">
<stop/>
<stop offset="1" stop-color="white"/>
</linearGradient>
<radialGradient id="paint64_radial_572_16639" cx="0" cy="0" r="1" gradientUnits="userSpaceOnUse" gradientTransform="translate(862.161 415.668) rotate(152.915) scale(3272.42 4522.18)">
<stop stop-color="white"/>
<stop offset="0.972689" stop-color="white" stop-opacity="0"/>
</radialGradient>
<linearGradient id="paint65_linear_572_16639" x1="-280.63" y1="3.4693" x2="385.842" y2="1616.49" gradientUnits="userSpaceOnUse">
<stop/>
<stop offset="1" stop-color="white"/>
</linearGradient>
<radialGradient id="paint66_radial_572_16639" cx="0" cy="0" r="1" gradientUnits="userSpaceOnUse" gradientTransform="translate(862.161 415.668) rotate(152.915) scale(3272.42 4522.18)">
<stop stop-color="white"/>
<stop offset="0.972689" stop-color="white" stop-opacity="0"/>
</radialGradient>
<linearGradient id="paint67_linear_572_16639" x1="-278.713" y1="3.90155" x2="387.76" y2="1616.92" gradientUnits="userSpaceOnUse">
<stop/>
<stop offset="1" stop-color="white"/>
</linearGradient>
<radialGradient id="paint68_radial_572_16639" cx="0" cy="0" r="1" gradientUnits="userSpaceOnUse" gradientTransform="translate(862.161 415.668) rotate(152.915) scale(3272.42 4522.18)">
<stop stop-color="white"/>
<stop offset="0.972689" stop-color="white" stop-opacity="0"/>
</radialGradient>
<linearGradient id="paint69_linear_572_16639" x1="-279.858" y1="3.73953" x2="387.226" y2="1617.37" gradientUnits="userSpaceOnUse">
<stop/>
<stop offset="1" stop-color="white"/>
</linearGradient>
<radialGradient id="paint70_radial_572_16639" cx="0" cy="0" r="1" gradientUnits="userSpaceOnUse" gradientTransform="translate(862.161 415.668) rotate(152.915) scale(3272.42 4522.18)">
<stop stop-color="white"/>
<stop offset="0.972689" stop-color="white" stop-opacity="0"/>
</radialGradient>
<linearGradient id="paint71_linear_572_16639" x1="-280.522" y1="3.62215" x2="386.494" y2="1617.96" gradientUnits="userSpaceOnUse">
<stop/>
<stop offset="1" stop-color="white"/>
</linearGradient>
<radialGradient id="paint72_radial_572_16639" cx="0" cy="0" r="1" gradientUnits="userSpaceOnUse" gradientTransform="translate(862.161 415.668) rotate(152.915) scale(3272.42 4522.18)">
<stop stop-color="white"/>
<stop offset="0.972689" stop-color="white" stop-opacity="0"/>
</radialGradient>
<linearGradient id="paint73_linear_572_16639" x1="-279.502" y1="3.01629" x2="387.278" y2="1616.78" gradientUnits="userSpaceOnUse">
<stop/>
<stop offset="1" stop-color="white"/>
</linearGradient>
<linearGradient id="paint74_linear_572_16639" x1="-280.725" y1="3.86522" x2="385.912" y2="1617.46" gradientUnits="userSpaceOnUse">
<stop/>
<stop offset="1" stop-color="white"/>
</linearGradient>
<linearGradient id="paint75_linear_572_16639" x1="-280.558" y1="3.88627" x2="385.803" y2="1616.79" gradientUnits="userSpaceOnUse">
<stop/>
<stop offset="1" stop-color="white"/>
</linearGradient>
<radialGradient id="paint76_radial_572_16639" cx="0" cy="0" r="1" gradientUnits="userSpaceOnUse" gradientTransform="translate(862.161 415.668) rotate(152.915) scale(3272.42 4522.18)">
<stop stop-color="white"/>
<stop offset="0.972689" stop-color="white" stop-opacity="0"/>
</radialGradient>
<linearGradient id="paint77_linear_572_16639" x1="-280.667" y1="4.02135" x2="385.971" y2="1617.62" gradientUnits="userSpaceOnUse">
<stop/>
<stop offset="1" stop-color="white"/>
</linearGradient>
<radialGradient id="paint78_radial_572_16639" cx="0" cy="0" r="1" gradientUnits="userSpaceOnUse" gradientTransform="translate(862.161 415.668) rotate(152.915) scale(3272.42 4522.18)">
<stop stop-color="white"/>
<stop offset="0.972689" stop-color="white" stop-opacity="0"/>
</radialGradient>
<radialGradient id="paint79_radial_572_16639" cx="0" cy="0" r="1" gradientUnits="userSpaceOnUse" gradientTransform="translate(862.161 415.668) rotate(152.915) scale(3272.42 4522.18)">
<stop stop-color="white"/>
<stop offset="0.972689" stop-color="white" stop-opacity="0"/>
</radialGradient>
<radialGradient id="paint80_radial_572_16639" cx="0" cy="0" r="1" gradientUnits="userSpaceOnUse" gradientTransform="translate(862.161 415.668) rotate(152.915) scale(3272.42 4522.18)">
<stop stop-color="white"/>
<stop offset="0.972689" stop-color="white" stop-opacity="0"/>
</radialGradient>
<radialGradient id="paint81_radial_572_16639" cx="0" cy="0" r="1" gradientUnits="userSpaceOnUse" gradientTransform="translate(862.161 415.668) rotate(152.915) scale(3272.42 4522.18)">
<stop stop-color="white"/>
<stop offset="0.972689" stop-color="white" stop-opacity="0"/>
</radialGradient>
<radialGradient id="paint82_radial_572_16639" cx="0" cy="0" r="1" gradientUnits="userSpaceOnUse" gradientTransform="translate(862.161 415.668) rotate(152.915) scale(3272.42 4522.18)">
<stop stop-color="white"/>
<stop offset="0.972689" stop-color="white" stop-opacity="0"/>
</radialGradient>
<radialGradient id="paint83_radial_572_16639" cx="0" cy="0" r="1" gradientUnits="userSpaceOnUse" gradientTransform="translate(862.161 415.668) rotate(152.915) scale(3272.42 4522.18)">
<stop stop-color="white"/>
<stop offset="0.972689" stop-color="white" stop-opacity="0"/>
</radialGradient>
<radialGradient id="paint84_radial_572_16639" cx="0" cy="0" r="1" gradientUnits="userSpaceOnUse" gradientTransform="translate(862.161 415.668) rotate(152.915) scale(3272.42 4522.18)">
<stop stop-color="white"/>
<stop offset="0.972689" stop-color="white" stop-opacity="0"/>
</radialGradient>
<radialGradient id="paint85_radial_572_16639" cx="0" cy="0" r="1" gradientUnits="userSpaceOnUse" gradientTransform="translate(862.161 415.668) rotate(152.915) scale(3272.42 4522.18)">
<stop stop-color="white"/>
<stop offset="0.972689" stop-color="white" stop-opacity="0"/>
</radialGradient>
<radialGradient id="paint86_radial_572_16639" cx="0" cy="0" r="1" gradientUnits="userSpaceOnUse" gradientTransform="translate(862.161 415.668) rotate(152.915) scale(3272.42 4522.18)">
<stop stop-color="white"/>
<stop offset="0.972689" stop-color="white" stop-opacity="0"/>
</radialGradient>
<radialGradient id="paint87_radial_572_16639" cx="0" cy="0" r="1" gradientUnits="userSpaceOnUse" gradientTransform="translate(862.161 415.668) rotate(152.915) scale(3272.42 4522.18)">
<stop stop-color="white"/>
<stop offset="0.972689" stop-color="white" stop-opacity="0"/>
</radialGradient>
<radialGradient id="paint88_radial_572_16639" cx="0" cy="0" r="1" gradientUnits="userSpaceOnUse" gradientTransform="translate(862.161 415.668) rotate(152.915) scale(3272.42 4522.18)">
<stop stop-color="white"/>
<stop offset="0.972689" stop-color="white" stop-opacity="0"/>
</radialGradient>
<radialGradient id="paint89_radial_572_16639" cx="0" cy="0" r="1" gradientUnits="userSpaceOnUse" gradientTransform="translate(862.161 415.668) rotate(152.915) scale(3272.42 4522.18)">
<stop stop-color="white"/>
<stop offset="0.972689" stop-color="white" stop-opacity="0"/>
</radialGradient>
<radialGradient id="paint90_radial_572_16639" cx="0" cy="0" r="1" gradientUnits="userSpaceOnUse" gradientTransform="translate(862.161 415.668) rotate(152.915) scale(3272.42 4522.18)">
<stop stop-color="white"/>
<stop offset="0.972689" stop-color="white" stop-opacity="0"/>
</radialGradient>
<radialGradient id="paint91_radial_572_16639" cx="0" cy="0" r="1" gradientUnits="userSpaceOnUse" gradientTransform="translate(862.161 415.668) rotate(152.915) scale(3272.42 4522.18)">
<stop stop-color="white"/>
<stop offset="0.972689" stop-color="white" stop-opacity="0"/>
</radialGradient>
<radialGradient id="paint92_radial_572_16639" cx="0" cy="0" r="1" gradientUnits="userSpaceOnUse" gradientTransform="translate(862.161 415.668) rotate(152.915) scale(3272.42 4522.18)">
<stop stop-color="white"/>
<stop offset="0.972689" stop-color="white" stop-opacity="0"/>
</radialGradient>
<radialGradient id="paint93_radial_572_16639" cx="0" cy="0" r="1" gradientUnits="userSpaceOnUse" gradientTransform="translate(862.161 415.668) rotate(152.915) scale(3272.42 4522.18)">
<stop stop-color="white"/>
<stop offset="0.972689" stop-color="white" stop-opacity="0"/>
</radialGradient>
<radialGradient id="paint94_radial_572_16639" cx="0" cy="0" r="1" gradientUnits="userSpaceOnUse" gradientTransform="translate(862.161 415.668) rotate(152.915) scale(3272.42 4522.18)">
<stop stop-color="white"/>
<stop offset="0.972689" stop-color="white" stop-opacity="0"/>
</radialGradient>
<radialGradient id="paint95_radial_572_16639" cx="0" cy="0" r="1" gradientUnits="userSpaceOnUse" gradientTransform="translate(862.161 415.668) rotate(152.915) scale(3272.42 4522.18)">
<stop stop-color="white"/>
<stop offset="0.972689" stop-color="white" stop-opacity="0"/>
</radialGradient>
<radialGradient id="paint96_radial_572_16639" cx="0" cy="0" r="1" gradientUnits="userSpaceOnUse" gradientTransform="translate(862.161 415.668) rotate(152.915) scale(3272.42 4522.18)">
<stop stop-color="white"/>
<stop offset="0.972689" stop-color="white" stop-opacity="0"/>
</radialGradient>
<radialGradient id="paint97_radial_572_16639" cx="0" cy="0" r="1" gradientUnits="userSpaceOnUse" gradientTransform="translate(862.161 415.668) rotate(152.915) scale(3272.42 4522.18)">
<stop stop-color="white"/>
<stop offset="0.972689" stop-color="white" stop-opacity="0"/>
</radialGradient>
<radialGradient id="paint98_radial_572_16639" cx="0" cy="0" r="1" gradientUnits="userSpaceOnUse" gradientTransform="translate(862.161 415.668) rotate(152.915) scale(3272.42 4522.18)">
<stop stop-color="white"/>
<stop offset="0.972689" stop-color="white" stop-opacity="0"/>
</radialGradient>
<radialGradient id="paint99_radial_572_16639" cx="0" cy="0" r="1" gradientUnits="userSpaceOnUse" gradientTransform="translate(862.161 415.668) rotate(152.915) scale(3272.42 4522.18)">
<stop stop-color="white"/>
<stop offset="0.972689" stop-color="white" stop-opacity="0"/>
</radialGradient>
<linearGradient id="paint100_linear_572_16639" x1="-280.72" y1="3.90058" x2="385.091" y2="1617.03" gradientUnits="userSpaceOnUse">
<stop/>
<stop offset="1" stop-color="white"/>
</linearGradient>
<radialGradient id="paint101_radial_572_16639" cx="0" cy="0" r="1" gradientUnits="userSpaceOnUse" gradientTransform="translate(862.161 415.668) rotate(152.915) scale(3272.42 4522.18)">
<stop stop-color="white"/>
<stop offset="0.972689" stop-color="white" stop-opacity="0"/>
</radialGradient>
<linearGradient id="paint102_linear_572_16639" x1="-281.404" y1="3.46884" x2="385.612" y2="1617.8" gradientUnits="userSpaceOnUse">
<stop/>
<stop offset="1" stop-color="white"/>
</linearGradient>
<linearGradient id="paint103_linear_572_16639" x1="-279.838" y1="3.5267" x2="387.178" y2="1617.86" gradientUnits="userSpaceOnUse">
<stop/>
<stop offset="1" stop-color="white"/>
</linearGradient>
<linearGradient id="paint104_linear_572_16639" x1="-279.558" y1="3.72438" x2="387.458" y2="1618.06" gradientUnits="userSpaceOnUse">
<stop/>
<stop offset="1" stop-color="white"/>
</linearGradient>
<linearGradient id="paint105_linear_572_16639" x1="-280.977" y1="2.50749" x2="387.421" y2="1618.23" gradientUnits="userSpaceOnUse">
<stop/>
<stop offset="1" stop-color="white"/>
</linearGradient>
<radialGradient id="paint106_radial_572_16639" cx="0" cy="0" r="1" gradientUnits="userSpaceOnUse" gradientTransform="translate(862.161 415.668) rotate(152.915) scale(3272.42 4522.18)">
<stop stop-color="white"/>
<stop offset="0.972689" stop-color="white" stop-opacity="0"/>
</radialGradient>
<linearGradient id="paint107_linear_572_16639" x1="-280.034" y1="2.34143" x2="388.994" y2="1618.36" gradientUnits="userSpaceOnUse">
<stop/>
<stop offset="1" stop-color="white"/>
</linearGradient>
<radialGradient id="paint108_radial_572_16639" cx="0" cy="0" r="1" gradientUnits="userSpaceOnUse" gradientTransform="translate(862.161 415.668) rotate(152.915) scale(3272.42 4522.18)">
<stop stop-color="white"/>
<stop offset="0.972689" stop-color="white" stop-opacity="0"/>
</radialGradient>
<linearGradient id="paint109_linear_572_16639" x1="-278.469" y1="3.9503" x2="388.31" y2="1617.71" gradientUnits="userSpaceOnUse">
<stop/>
<stop offset="1" stop-color="white"/>
</linearGradient>
<radialGradient id="paint110_radial_572_16639" cx="0" cy="0" r="1" gradientUnits="userSpaceOnUse" gradientTransform="translate(862.161 415.668) rotate(152.915) scale(3272.42 4522.18)">
<stop stop-color="white"/>
<stop offset="0.972689" stop-color="white" stop-opacity="0"/>
</radialGradient>
<linearGradient id="paint111_linear_572_16639" x1="-277.786" y1="3.17612" x2="388.992" y2="1616.94" gradientUnits="userSpaceOnUse">
<stop/>
<stop offset="1" stop-color="white"/>
</linearGradient>
<radialGradient id="paint112_radial_572_16639" cx="0" cy="0" r="1" gradientUnits="userSpaceOnUse" gradientTransform="translate(862.161 415.668) rotate(152.915) scale(3272.42 4522.18)">
<stop stop-color="white"/>
<stop offset="0.972689" stop-color="white" stop-opacity="0"/>
</radialGradient>
<linearGradient id="paint113_linear_572_16639" x1="-280.59" y1="3.53824" x2="386.187" y2="1617.3" gradientUnits="userSpaceOnUse">
<stop/>
<stop offset="1" stop-color="white"/>
</linearGradient>
<radialGradient id="paint114_radial_572_16639" cx="0" cy="0" r="1" gradientUnits="userSpaceOnUse" gradientTransform="translate(862.161 415.668) rotate(152.915) scale(3272.42 4522.18)">
<stop stop-color="white"/>
<stop offset="0.972689" stop-color="white" stop-opacity="0"/>
</radialGradient>
<linearGradient id="paint115_linear_572_16639" x1="-277.774" y1="3.31097" x2="389.004" y2="1617.07" gradientUnits="userSpaceOnUse">
<stop/>
<stop offset="1" stop-color="white"/>
</linearGradient>
<radialGradient id="paint116_radial_572_16639" cx="0" cy="0" r="1" gradientUnits="userSpaceOnUse" gradientTransform="translate(862.161 415.668) rotate(152.915) scale(3272.42 4522.18)">
<stop stop-color="white"/>
<stop offset="0.972689" stop-color="white" stop-opacity="0"/>
</radialGradient>
<linearGradient id="paint117_linear_572_16639" x1="-277.635" y1="4.43977" x2="389.143" y2="1618.2" gradientUnits="userSpaceOnUse">
<stop/>
<stop offset="1" stop-color="white"/>
</linearGradient>
<radialGradient id="paint118_radial_572_16639" cx="0" cy="0" r="1" gradientUnits="userSpaceOnUse" gradientTransform="translate(862.161 415.668) rotate(152.915) scale(3272.42 4522.18)">
<stop stop-color="white"/>
<stop offset="0.972689" stop-color="white" stop-opacity="0"/>
</radialGradient>
<linearGradient id="paint119_linear_572_16639" x1="-277.079" y1="3.12868" x2="389.7" y2="1616.89" gradientUnits="userSpaceOnUse">
<stop/>
<stop offset="1" stop-color="white"/>
</linearGradient>
<radialGradient id="paint120_radial_572_16639" cx="0" cy="0" r="1" gradientUnits="userSpaceOnUse" gradientTransform="translate(862.161 415.668) rotate(152.915) scale(3272.42 4522.18)">
<stop stop-color="white"/>
<stop offset="0.972689" stop-color="white" stop-opacity="0"/>
</radialGradient>
<linearGradient id="paint121_linear_572_16639" x1="-277.574" y1="4.24501" x2="389.203" y2="1618.01" gradientUnits="userSpaceOnUse">
<stop/>
<stop offset="1" stop-color="white"/>
</linearGradient>
<radialGradient id="paint122_radial_572_16639" cx="0" cy="0" r="1" gradientUnits="userSpaceOnUse" gradientTransform="translate(862.161 415.668) rotate(152.915) scale(3272.42 4522.18)">
<stop stop-color="white"/>
<stop offset="0.972689" stop-color="white" stop-opacity="0"/>
</radialGradient>
<linearGradient id="paint123_linear_572_16639" x1="-281.576" y1="3.66634" x2="386.24" y2="1618.47" gradientUnits="userSpaceOnUse">
<stop/>
<stop offset="1" stop-color="white"/>
</linearGradient>
<radialGradient id="paint124_radial_572_16639" cx="0" cy="0" r="1" gradientUnits="userSpaceOnUse" gradientTransform="translate(862.161 415.668) rotate(152.915) scale(3272.42 4522.18)">
<stop stop-color="white"/>
<stop offset="0.972689" stop-color="white" stop-opacity="0"/>
</radialGradient>
<linearGradient id="paint125_linear_572_16639" x1="-279.665" y1="3.5372" x2="387.289" y2="1617.72" gradientUnits="userSpaceOnUse">
<stop/>
<stop offset="1" stop-color="white"/>
</linearGradient>
<radialGradient id="paint126_radial_572_16639" cx="0" cy="0" r="1" gradientUnits="userSpaceOnUse" gradientTransform="translate(862.161 415.668) rotate(152.915) scale(3272.42 4522.18)">
<stop stop-color="white"/>
<stop offset="0.972689" stop-color="white" stop-opacity="0"/>
</radialGradient>
<linearGradient id="paint127_linear_572_16639" x1="-281.248" y1="3.89939" x2="385.389" y2="1617.49" gradientUnits="userSpaceOnUse">
<stop/>
<stop offset="1" stop-color="white"/>
</linearGradient>
<radialGradient id="paint128_radial_572_16639" cx="0" cy="0" r="1" gradientUnits="userSpaceOnUse" gradientTransform="translate(862.161 415.668) rotate(152.915) scale(3272.42 4522.18)">
<stop stop-color="white"/>
<stop offset="0.972689" stop-color="white" stop-opacity="0"/>
</radialGradient>
<linearGradient id="paint129_linear_572_16639" x1="-280.688" y1="3.55341" x2="386.073" y2="1617.27" gradientUnits="userSpaceOnUse">
<stop/>
<stop offset="1" stop-color="white"/>
</linearGradient>
<radialGradient id="paint130_radial_572_16639" cx="0" cy="0" r="1" gradientUnits="userSpaceOnUse" gradientTransform="translate(862.161 415.668) rotate(152.915) scale(3272.42 4522.18)">
<stop stop-color="white"/>
<stop offset="0.972689" stop-color="white" stop-opacity="0"/>
</radialGradient>
<linearGradient id="paint131_linear_572_16639" x1="-279.126" y1="4.19294" x2="386.593" y2="1616.05" gradientUnits="userSpaceOnUse">
<stop/>
<stop offset="1" stop-color="white"/>
</linearGradient>
<radialGradient id="paint132_radial_572_16639" cx="0" cy="0" r="1" gradientUnits="userSpaceOnUse" gradientTransform="translate(862.161 415.668) rotate(152.915) scale(3272.42 4522.18)">
<stop stop-color="white"/>
<stop offset="0.972689" stop-color="white" stop-opacity="0"/>
</radialGradient>
<linearGradient id="paint133_linear_572_16639" x1="-278.542" y1="3.72667" x2="387.641" y2="1616.05" gradientUnits="userSpaceOnUse">
<stop/>
<stop offset="1" stop-color="white"/>
</linearGradient>
<radialGradient id="paint134_radial_572_16639" cx="0" cy="0" r="1" gradientUnits="userSpaceOnUse" gradientTransform="translate(862.161 415.668) rotate(152.915) scale(3272.42 4522.18)">
<stop stop-color="white"/>
<stop offset="0.972689" stop-color="white" stop-opacity="0"/>
</radialGradient>
<linearGradient id="paint135_linear_572_16639" x1="-280.99" y1="3.47262" x2="385.771" y2="1617.19" gradientUnits="userSpaceOnUse">
<stop/>
<stop offset="1" stop-color="white"/>
</linearGradient>
<radialGradient id="paint136_radial_572_16639" cx="0" cy="0" r="1" gradientUnits="userSpaceOnUse" gradientTransform="translate(862.161 415.668) rotate(152.915) scale(3272.42 4522.18)">
<stop stop-color="white"/>
<stop offset="0.972689" stop-color="white" stop-opacity="0"/>
</radialGradient>
<linearGradient id="paint137_linear_572_16639" x1="-279.844" y1="3.24592" x2="387.231" y2="1617.72" gradientUnits="userSpaceOnUse">
<stop/>
<stop offset="1" stop-color="white"/>
</linearGradient>
<radialGradient id="paint138_radial_572_16639" cx="0" cy="0" r="1" gradientUnits="userSpaceOnUse" gradientTransform="translate(862.161 415.668) rotate(152.915) scale(3272.42 4522.18)">
<stop stop-color="white"/>
<stop offset="0.972689" stop-color="white" stop-opacity="0"/>
</radialGradient>
<linearGradient id="paint139_linear_572_16639" x1="-280.067" y1="3.74799" x2="386.74" y2="1617.75" gradientUnits="userSpaceOnUse">
<stop/>
<stop offset="1" stop-color="white"/>
</linearGradient>
<radialGradient id="paint140_radial_572_16639" cx="0" cy="0" r="1" gradientUnits="userSpaceOnUse" gradientTransform="translate(862.161 415.668) rotate(152.915) scale(3272.42 4522.18)">
<stop stop-color="white"/>
<stop offset="0.972689" stop-color="white" stop-opacity="0"/>
</radialGradient>
<linearGradient id="paint141_linear_572_16639" x1="-280.906" y1="2.33776" x2="386.485" y2="1617.58" gradientUnits="userSpaceOnUse">
<stop/>
<stop offset="1" stop-color="white"/>
</linearGradient>
<radialGradient id="paint142_radial_572_16639" cx="0" cy="0" r="1" gradientUnits="userSpaceOnUse" gradientTransform="translate(862.161 415.668) rotate(152.915) scale(3272.42 4522.18)">
<stop stop-color="white"/>
<stop offset="0.972689" stop-color="white" stop-opacity="0"/>
</radialGradient>
<linearGradient id="paint143_linear_572_16639" x1="-280.63" y1="3.4693" x2="385.842" y2="1616.49" gradientUnits="userSpaceOnUse">
<stop/>
<stop offset="1" stop-color="white"/>
</linearGradient>
<radialGradient id="paint144_radial_572_16639" cx="0" cy="0" r="1" gradientUnits="userSpaceOnUse" gradientTransform="translate(862.161 415.668) rotate(152.915) scale(3272.42 4522.18)">
<stop stop-color="white"/>
<stop offset="0.972689" stop-color="white" stop-opacity="0"/>
</radialGradient>
<linearGradient id="paint145_linear_572_16639" x1="-278.713" y1="3.90155" x2="387.76" y2="1616.92" gradientUnits="userSpaceOnUse">
<stop/>
<stop offset="1" stop-color="white"/>
</linearGradient>
<radialGradient id="paint146_radial_572_16639" cx="0" cy="0" r="1" gradientUnits="userSpaceOnUse" gradientTransform="translate(862.161 415.668) rotate(152.915) scale(3272.42 4522.18)">
<stop stop-color="white"/>
<stop offset="0.972689" stop-color="white" stop-opacity="0"/>
</radialGradient>
<linearGradient id="paint147_linear_572_16639" x1="-279.858" y1="3.73953" x2="387.226" y2="1617.37" gradientUnits="userSpaceOnUse">
<stop/>
<stop offset="1" stop-color="white"/>
</linearGradient>
<radialGradient id="paint148_radial_572_16639" cx="0" cy="0" r="1" gradientUnits="userSpaceOnUse" gradientTransform="translate(862.161 415.668) rotate(152.915) scale(3272.42 4522.18)">
<stop stop-color="white"/>
<stop offset="0.972689" stop-color="white" stop-opacity="0"/>
</radialGradient>
<linearGradient id="paint149_linear_572_16639" x1="-280.522" y1="3.62215" x2="386.494" y2="1617.96" gradientUnits="userSpaceOnUse">
<stop/>
<stop offset="1" stop-color="white"/>
</linearGradient>
<radialGradient id="paint150_radial_572_16639" cx="0" cy="0" r="1" gradientUnits="userSpaceOnUse" gradientTransform="translate(862.161 415.668) rotate(152.915) scale(3272.42 4522.18)">
<stop stop-color="white"/>
<stop offset="0.972689" stop-color="white" stop-opacity="0"/>
</radialGradient>
<linearGradient id="paint151_linear_572_16639" x1="-279.502" y1="3.01629" x2="387.278" y2="1616.78" gradientUnits="userSpaceOnUse">
<stop/>
<stop offset="1" stop-color="white"/>
</linearGradient>
<linearGradient id="paint152_linear_572_16639" x1="-280.725" y1="3.86522" x2="385.912" y2="1617.46" gradientUnits="userSpaceOnUse">
<stop/>
<stop offset="1" stop-color="white"/>
</linearGradient>
<linearGradient id="paint153_linear_572_16639" x1="-280.558" y1="3.88627" x2="385.803" y2="1616.79" gradientUnits="userSpaceOnUse">
<stop/>
<stop offset="1" stop-color="white"/>
</linearGradient>
<radialGradient id="paint154_radial_572_16639" cx="0" cy="0" r="1" gradientUnits="userSpaceOnUse" gradientTransform="translate(862.161 415.668) rotate(152.915) scale(3272.42 4522.18)">
<stop stop-color="white"/>
<stop offset="0.972689" stop-color="white" stop-opacity="0"/>
</radialGradient>
<linearGradient id="paint155_linear_572_16639" x1="-280.667" y1="4.02135" x2="385.971" y2="1617.62" gradientUnits="userSpaceOnUse">
<stop/>
<stop offset="1" stop-color="white"/>
</linearGradient>
</defs>
</svg>
