<svg width="719" height="576" viewBox="0 0 719 576" fill="white" xmlns="http://www.w3.org/2000/svg">
<path fill-rule="evenodd" clip-rule="evenodd" d="M126.312 2.06413C110.794 7.00613 103.884 24.1381 111.163 39.6241C113.55 44.7011 117.63 48.4471 124 51.4081L128.5 53.5001H288H447.5L452.632 50.7931C464.368 44.6031 469.693 31.0231 465.38 18.2851C463.05 11.4051 458.751 6.51614 452.208 3.30314L446.5 0.500131L289.5 0.297128C135.745 0.0981278 132.372 0.134126 126.312 2.06413ZM72.312 92.0661C56.795 97.0021 49.884 114.137 57.163 129.624C59.55 134.701 63.63 138.447 70 141.408L74.5 143.5H288H501.5L506.632 140.793C518.368 134.603 523.693 121.023 519.38 108.285C517.05 101.405 512.751 96.5161 506.208 93.3031L500.5 90.5001L289.5 90.2991C82.105 90.1021 78.394 90.1321 72.312 92.0661ZM62.47 181.042C34.308 184.725 10.242 205.917 2.33099 234C0.596994 240.157 0.5 247.763 0.5 378C0.5 507.821 0.601017 515.863 2.31702 522C9.32002 547.059 28.144 565.682 54.5 573.626C60.167 575.334 69.811 575.452 228.5 575.739C320.9 575.907 407.057 575.922 419.961 575.772L443.422 575.5L435.961 570.007C403.074 545.796 375.973 504.993 365.552 464C359.096 438.603 358.15 412.385 362.611 382.5C367.374 350.587 380.104 320.762 399.954 295.008C408.556 283.847 428.451 263.881 438.5 256.324C471.931 231.183 507.477 218.773 553.381 216.217L566.261 215.5L561.923 210C548.707 193.243 532.1 183.647 511.737 181.002C502.921 179.857 71.24 179.895 62.47 181.042ZM544.242 253.02C522.322 255.274 502.196 261.066 483.691 270.445C443.996 290.564 414.967 325.718 402.701 368.524C397.985 384.983 396.628 395.143 396.628 414C396.628 426.384 397.139 434.277 398.378 441C404.834 476.035 419.756 504.994 443.467 528.5C471.011 555.806 504.826 571.117 546.207 575.02C580.426 578.246 622.538 566.335 652.5 544.954C669.822 532.593 687.726 512.422 698.176 493.493C712.214 468.065 718.372 443.827 718.372 414C718.372 395.042 716.982 384.596 712.315 368.5C697.04 315.811 656.516 274.943 604.329 259.596C585.243 253.982 560.845 251.312 544.242 253.02ZM563.768 324.548C568.194 326.397 571.592 329.416 573.845 333.5C575.256 336.058 575.547 340.813 575.818 365.75L576.135 395H604.1C627.078 395 632.725 395.276 635.768 396.548C646.781 401.149 650.556 412.713 644.333 422.78C639.567 430.488 637.638 430.881 604.318 430.946L576.135 431L575.818 460.331L575.5 489.662L572.47 494.561C570.02 498.521 568.487 499.815 564.47 501.312C555.588 504.621 546.752 501.837 542.345 494.341L539.5 489.5L539.182 460.25L538.865 431L511.182 430.956C477.91 430.904 475.326 430.383 470.661 422.796C464.173 412.243 469.071 399.296 480.781 396.044C482.917 395.451 496.07 395.009 511.682 395.006L538.865 395L539.182 365.75C539.526 334.123 539.633 333.468 545.31 328.165C548.027 325.627 554.148 323.114 557.782 323.044C559.037 323.02 561.731 323.696 563.768 324.548Z" fill="white"/>
</svg>
