<svg xmlns="http://www.w3.org/2000/svg" width="200" height="50" viewBox="0 0 200 50">
  <g id="Group_1" data-name="Group 1" transform="translate(-195 -29)">
    <rect id="Rectangle_2" data-name="Rectangle 2" width="200" height="50" transform="translate(195 29)" fill="#000e2b" opacity="0"/>
    <g id="Logo" transform="translate(114.667 -55.221)">
      <g id="Type" transform="translate(145.562 98.223)">
        <path id="Medu" d="M100.56-27.809a.471.471,0,0,1,.375-.191h2.375a.279.279,0,0,1,.313.318V-6.074a.279.279,0,0,1-.313.318h-2.375a.279.279,0,0,1-.313-.318v-16.27a.129.129,0,0,0-.063-.127q-.062-.032-.094.064L96-15.48a.419.419,0,0,1-.375.191H94.434a.471.471,0,0,1-.375-.191l-4.5-6.864q-.031-.1-.094-.064a.129.129,0,0,0-.062.127V-6.074a.279.279,0,0,1-.313.318H86.714a.279.279,0,0,1-.313-.318V-27.682A.279.279,0,0,1,86.714-28h2.375a.419.419,0,0,1,.375.191l5.47,8.326a.126.126,0,0,0,.094.032.126.126,0,0,0,.094-.032Zm22.722,2.129a.279.279,0,0,1-.313.318h-11.1a.111.111,0,0,0-.125.127V-18.4a.111.111,0,0,0,.125.127H119.5a.279.279,0,0,1,.313.318v2a.279.279,0,0,1-.313.318h-7.626a.111.111,0,0,0-.125.127v6.991a.111.111,0,0,0,.125.127h11.1a.279.279,0,0,1,.313.318v2a.279.279,0,0,1-.313.318H109.061a.279.279,0,0,1-.313-.318V-27.682a.279.279,0,0,1,.313-.318H122.97a.279.279,0,0,1,.313.318Zm4.469,19.924a.279.279,0,0,1-.313-.318V-27.682a.279.279,0,0,1,.313-.318h7.564a7.5,7.5,0,0,1,5.188,1.732,5.9,5.9,0,0,1,1.938,4.624v9.533A5.9,5.9,0,0,1,140.5-7.488a7.5,7.5,0,0,1-5.188,1.732Zm2.688-2.765a.111.111,0,0,0,.125.127h4.876a3.812,3.812,0,0,0,2.891-1.128,4.317,4.317,0,0,0,1.11-3.035V-21.2a4.209,4.209,0,0,0-1.078-3.035,3.852,3.852,0,0,0-2.922-1.128h-4.876a.111.111,0,0,0-.125.127ZM154.225-5.5a8.555,8.555,0,0,1-4.016-.906,6.584,6.584,0,0,1-2.7-2.574,7.484,7.484,0,0,1-.969-3.829V-27.682a.279.279,0,0,1,.313-.318h2.375a.279.279,0,0,1,.313.318v14.935a4.462,4.462,0,0,0,1.3,3.337,4.638,4.638,0,0,0,3.391,1.271A4.584,4.584,0,0,0,157.6-9.41a4.492,4.492,0,0,0,1.281-3.337V-27.682a.279.279,0,0,1,.313-.318h2.375a.279.279,0,0,1,.313.318v14.872a7.58,7.58,0,0,1-.953,3.829,6.482,6.482,0,0,1-2.688,2.574A8.555,8.555,0,0,1,154.225-5.5Z" transform="translate(-28.299 28)" fill="#fff" stroke="rgba(0,0,0,0)" stroke-miterlimit="10" stroke-width="1"/>
        <path id="Edu" d="M17.918-26.348a.279.279,0,0,1-.313.318H6.1a.111.111,0,0,0-.125.127v7.849a.111.111,0,0,0,.125.127h8.064a.279.279,0,0,1,.313.318v1.335a.279.279,0,0,1-.313.318H6.1a.111.111,0,0,0-.125.127v7.976a.111.111,0,0,0,.125.127h11.5a.279.279,0,0,1,.313.318v1.335a.279.279,0,0,1-.313.318H4.073a.279.279,0,0,1-.313-.318V-27.682A.279.279,0,0,1,4.073-28H17.606a.279.279,0,0,1,.313.318ZM22.982-5.756a.279.279,0,0,1-.313-.318V-27.682A.279.279,0,0,1,22.982-28h7.376a7.065,7.065,0,0,1,4.923,1.652,5.738,5.738,0,0,1,1.828,4.481v9.978a5.738,5.738,0,0,1-1.828,4.481,7.065,7.065,0,0,1-4.923,1.652Zm1.907-2.1a.111.111,0,0,0,.125.127h5.438a4.363,4.363,0,0,0,3.235-1.208,4.389,4.389,0,0,0,1.2-3.241v-9.374A4.465,4.465,0,0,0,33.7-24.822a4.351,4.351,0,0,0-3.251-1.208H25.013a.111.111,0,0,0-.125.127ZM49.173-5.5a8.187,8.187,0,0,1-3.876-.89,6.465,6.465,0,0,1-2.625-2.495,7.266,7.266,0,0,1-.938-3.734V-27.682A.279.279,0,0,1,42.047-28h1.594a.279.279,0,0,1,.313.318v15.126a4.921,4.921,0,0,0,1.438,3.67,5.161,5.161,0,0,0,3.782,1.414,5.161,5.161,0,0,0,3.782-1.414,4.921,4.921,0,0,0,1.438-3.67V-27.682A.279.279,0,0,1,54.705-28H56.3a.279.279,0,0,1,.313.318V-12.62a7.363,7.363,0,0,1-.922,3.734,6.361,6.361,0,0,1-2.61,2.495A8.256,8.256,0,0,1,49.173-5.5Z" transform="translate(-3.76 28)" fill="#fff" stroke="rgba(0,0,0,0)" stroke-miterlimit="10" stroke-width="1"/>
      </g>
      <g id="Symbol" transform="translate(81.333 85.721)">
        <path id="Hexagon" d="M746.463,288.333H719.112l-13.717,23.5,13.7,23.5h27.369l13.717-23.5Zm-1.356,44.627H720.45l-12.315-21.127,12.333-21.127h24.639l12.314,21.127Z" transform="translate(-705.395 -288.333)" fill="#fff"/>
        <path id="EM" d="M773.41,321.472h-1.392l-16.536,28.646V350.1l-.887,1.534-7.8-13.353,8.429-14.433h6.33l-8.834,15.288,1.37,2.358,11.56-20.018H753.869l-9.812,16.806,9.812,16.806h1.472l.049-.093.01,0h0L772.72,325l3.188,5.449L763.056,352.71h-.019l-1.371,2.373h2.761l1.793-3.1,11.056-19.173,3.187,5.471-5.125,8.816-4.617,7.99h2.688l9.813-16.806Z" transform="translate(-736.247 -314.777)" fill="#ff5722"/>
      </g>
    </g>
  </g>
</svg>
